<?xml version="1.0" encoding="UTF-8" standalone="no"?>
<!-- Created with Inkscape (http://www.inkscape.org/) -->

<svg
   xmlns:dc="http://purl.org/dc/elements/1.1/"
   xmlns:cc="http://creativecommons.org/ns#"
   xmlns:rdf="http://www.w3.org/1999/02/22-rdf-syntax-ns#"
   xmlns:svg="http://www.w3.org/2000/svg"
   xmlns="http://www.w3.org/2000/svg"
   xmlns:sodipodi="http://sodipodi.sourceforge.net/DTD/sodipodi-0.dtd"
   xmlns:inkscape="http://www.inkscape.org/namespaces/inkscape"
   width="64px"
   height="64px"
   id="svg3471"
   version="1.1"
   inkscape:version="0.91 r13725"
   sodipodi:docname="no-events.svg">
  <defs
     id="defs3473" />
  <sodipodi:namedview
     id="base"
     pagecolor="#ffffff"
     bordercolor="#666666"
     borderopacity="1.0"
     inkscape:pageopacity="0.0"
     inkscape:pageshadow="2"
     inkscape:zoom="8"
     inkscape:cx="29.805099"
     inkscape:cy="43.213378"
     inkscape:current-layer="g19155"
     showgrid="true"
     inkscape:document-units="px"
     inkscape:grid-bbox="true"
     inkscape:window-width="1920"
     inkscape:window-height="1012"
     inkscape:window-x="0"
     inkscape:window-y="32"
     inkscape:window-maximized="1"
     inkscape:snap-bbox="true"
     inkscape:bbox-nodes="true"
     inkscape:snap-smooth-nodes="true"
     inkscape:object-nodes="true">
    <inkscape:grid
       type="xygrid"
       id="grid4145" />
  </sodipodi:namedview>
  <metadata
     id="metadata3476">
    <rdf:RDF>
      <cc:Work
         rdf:about="">
        <dc:format>image/svg+xml</dc:format>
        <dc:type
           rdf:resource="http://purl.org/dc/dcmitype/StillImage" />
        <dc:title />
      </cc:Work>
    </rdf:RDF>
  </metadata>
  <g
     id="layer1"
     inkscape:label="Layer 1"
     inkscape:groupmode="layer">
    <g
       transform="matrix(4,0,0,4,2,2)"
       id="g19145"
       style="display:inline;fill:#000000;fill-opacity:0.80000001;opacity:0.4">
      <g
         id="g19147"
         inkscape:label="status"
         style="display:inline;fill:#000000;fill-opacity:0.80000001"
         transform="translate(-541.0002,-301)" />
      <g
         style="fill:#000000;fill-opacity:0.80000001"
         id="g19149"
         inkscape:label="devices"
         transform="translate(-541.0002,-301)" />
      <g
         style="fill:#000000;fill-opacity:0.80000001"
         id="g19151"
         inkscape:label="apps"
         transform="translate(-541.0002,-301)" />
      <g
         style="fill:#000000;fill-opacity:0.80000001"
         id="g19153"
         inkscape:label="places"
         transform="translate(-541.0002,-301)" />
      <g
         style="fill:#000000;fill-opacity:0.80000001"
         id="g19155"
         inkscape:label="mimetypes"
         transform="translate(-541.0002,-301)">
        <path
           inkscape:connector-curvature="0"
           d="m 543.0002,301 c -1,0 -2,1 -2,2 l 0,11 c 0,1 1,2 2,2 l 11,0 c 1,0 2,-1 2,-2 l 0,-11 c 0,-1 -1,-2 -2,-2 z m 0,5 3,0 0,2 -3,0 z m 4,0 3,0 0,2 -3,0 z m 4,0 3,0 0,2 -3,0 z m -8,3 3,0 0,2 -3,0 z m 4,0 3,0 0,2 -3,0 z m 4,0 3,0 0,2 -3,0 z m -8,3 3,0 0,2 -3,0 z m 4,0 3,0 0,2 -3,0 z m 4,0 3,0 0,2 -3,0 z"
           id="path19157"
           style="color:#000000;font-style:normal;font-variant:normal;font-weight:normal;font-stretch:normal;font-size:medium;line-height:normal;font-family:Sans;-inkscape-font-specification:Sans;text-indent:0;text-align:start;text-decoration:none;text-decoration-line:none;letter-spacing:normal;word-spacing:normal;text-transform:none;direction:ltr;block-progression:tb;writing-mode:lr-tb;baseline-shift:baseline;text-anchor:start;display:inline;overflow:visible;visibility:visible;fill:#000000;fill-opacity:0.8;stroke:none;stroke-width:2;marker:none;enable-background:new"
           sodipodi:nodetypes="sssssssssccccccccccccccccccccccccccccccccccccccccccccc" />
        <rect
           height="2"
           id="rect19159"
           style="color:#000000;display:inline;overflow:visible;visibility:visible;opacity:0.35;fill:#000000;fill-opacity:0.8;stroke:none;stroke-width:1;marker:none;enable-background:accumulate"
           width="2.9999831"
           x="551.00018"
           y="309" />
      </g>
      <g
         id="g19161"
         inkscape:label="emblems"
         style="display:inline;fill:#000000;fill-opacity:0.80000001"
         transform="translate(-541.0002,-301)" />
      <g
         id="g19163"
         inkscape:label="emotes"
         style="display:inline;fill:#000000;fill-opacity:0.80000001"
         transform="translate(-541.0002,-301)" />
      <g
         id="g19165"
         inkscape:label="categories"
         style="display:inline;fill:#000000;fill-opacity:0.80000001"
         transform="translate(-541.0002,-301)" />
      <g
         id="g19167"
         inkscape:label="actions"
         style="display:inline;fill:#000000;fill-opacity:0.80000001"
         transform="translate(-541.0002,-301)" />
    </g>
  </g>
</svg>
