<?xml version="1.0" encoding="UTF-8" standalone="no"?>
<!-- Created with Inkscape (http://www.inkscape.org/) -->

<svg
   xmlns:dc="http://purl.org/dc/elements/1.1/"
   xmlns:cc="http://creativecommons.org/ns#"
   xmlns:rdf="http://www.w3.org/1999/02/22-rdf-syntax-ns#"
   xmlns:svg="http://www.w3.org/2000/svg"
   xmlns="http://www.w3.org/2000/svg"
   xmlns:sodipodi="http://sodipodi.sourceforge.net/DTD/sodipodi-0.dtd"
   xmlns:inkscape="http://www.inkscape.org/namespaces/inkscape"
   sodipodi:docname="process-working-symbolic.svg"
   inkscape:export-filename="/home/sam/dev/RESOURCES/gnome-icon-theme-symbolic/src/gnome-stencils.png"
   inkscape:export-xdpi="90"
   inkscape:export-ydpi="90"
   height="48"
   id="svg7384"
   version="1.1"
   inkscape:version="0.48.5 r10040"
   width="96">
  <metadata
     id="metadata90">
    <rdf:RDF>
      <cc:Work
         rdf:about="">
        <dc:format>image/svg+xml</dc:format>
        <dc:type
           rdf:resource="http://purl.org/dc/dcmitype/StillImage" />
        <dc:title>Gnome Symbolic Icon Theme</dc:title>
      </cc:Work>
    </rdf:RDF>
  </metadata>
  <sodipodi:namedview
     inkscape:bbox-nodes="false"
     inkscape:bbox-paths="true"
     bordercolor="#666666"
     borderopacity="1"
     inkscape:current-layer="layer9"
     inkscape:cx="35.123596"
     inkscape:cy="24"
     gridtolerance="10"
     inkscape:guide-bbox="true"
     guidetolerance="10"
     id="namedview88"
     inkscape:object-nodes="false"
     inkscape:object-paths="false"
     objecttolerance="10"
     pagecolor="#3a3b39"
     inkscape:pageopacity="1"
     inkscape:pageshadow="2"
     showborder="true"
     showgrid="true"
     showguides="true"
     inkscape:snap-bbox="true"
     inkscape:snap-bbox-midpoints="false"
     inkscape:snap-global="true"
     inkscape:snap-grids="true"
     inkscape:snap-nodes="true"
     inkscape:snap-others="false"
     inkscape:snap-to-guides="true"
     inkscape:window-height="911"
     inkscape:window-maximized="1"
     inkscape:window-width="1920"
     inkscape:window-x="0"
     inkscape:window-y="32"
     inkscape:zoom="14.833333"
     inkscape:showpageshadow="false">
    <inkscape:grid
       dotted="false"
       empspacing="2"
       enabled="true"
       id="grid4866"
       originx="40.0002px"
       originy="100px"
       snapvisiblegridlinesonly="true"
       spacingx="1px"
       spacingy="1px"
       type="xygrid"
       visible="true" />
  </sodipodi:namedview>
  <title
     id="title9167">Gnome Symbolic Icon Theme</title>
  <defs
     id="defs7386">
    <inkscape:path-effect
       copytype="single_stretched"
       effect="skeletal"
       fuse_tolerance="0"
       id="path-effect14384"
       is_visible="true"
       normal_offset="0"
       pattern="m 217.02793,310.67147 0,3.32853 -16.01322,0 11.98549,-0.1422 -11.98549,-0.13869 11.98549,-0.13868 -11.98549,-0.13869 11.98549,-0.13869 -11.98549,-0.13869 11.98549,-0.13869 -11.98549,-0.13869 11.98549,-0.13868 -11.98549,-0.13869 11.98549,-0.1387 -11.98549,-0.13868 11.98549,-0.13869 -11.98549,-0.13869 11.98549,-0.13868 -11.98549,-0.1387 11.98549,-0.13869 -11.98549,-0.13869 11.98549,-0.13868 -11.98549,-0.13869 11.98549,-0.1387 -11.98549,-0.13867 11.98549,-0.1387 -11.98549,-0.13869 z"
       prop_scale="1"
       prop_units="false"
       scale_y_rel="false"
       spacing="0"
       tang_offset="0"
       vertical_pattern="false" />
    <inkscape:path-effect
       copytype="single_stretched"
       effect="skeletal"
       fuse_tolerance="0"
       id="path-effect14384-5"
       is_visible="true"
       normal_offset="0"
       pattern="m 217.02793,310.67147 0,3.32853 -16.01322,0 11.98549,-0.1422 -11.98549,-0.13869 11.98549,-0.13868 -11.98549,-0.13869 11.98549,-0.13869 -11.98549,-0.13869 11.98549,-0.13869 -11.98549,-0.13869 11.98549,-0.13868 -11.98549,-0.13869 11.98549,-0.1387 -11.98549,-0.13868 11.98549,-0.13869 -11.98549,-0.13869 11.98549,-0.13868 -11.98549,-0.1387 11.98549,-0.13869 -11.98549,-0.13869 11.98549,-0.13868 -11.98549,-0.13869 11.98549,-0.1387 -11.98549,-0.13867 11.98549,-0.1387 -11.98549,-0.13869 z"
       prop_scale="1"
       prop_units="false"
       scale_y_rel="false"
       spacing="0"
       tang_offset="0"
       vertical_pattern="false" />
    <inkscape:path-effect
       copytype="single_stretched"
       effect="skeletal"
       fuse_tolerance="0"
       id="path-effect14384-0"
       is_visible="true"
       normal_offset="0"
       pattern="m 217.02793,310.67147 0,3.32853 -16.01322,0 11.98549,-0.1422 -11.98549,-0.13869 11.98549,-0.13868 -11.98549,-0.13869 11.98549,-0.13869 -11.98549,-0.13869 11.98549,-0.13869 -11.98549,-0.13869 11.98549,-0.13868 -11.98549,-0.13869 11.98549,-0.1387 -11.98549,-0.13868 11.98549,-0.13869 -11.98549,-0.13869 11.98549,-0.13868 -11.98549,-0.1387 11.98549,-0.13869 -11.98549,-0.13869 11.98549,-0.13868 -11.98549,-0.13869 11.98549,-0.1387 -11.98549,-0.13867 11.98549,-0.1387 -11.98549,-0.13869 z"
       prop_scale="1"
       prop_units="false"
       scale_y_rel="false"
       spacing="0"
       tang_offset="0"
       vertical_pattern="false" />
    <inkscape:path-effect
       copytype="single_stretched"
       effect="skeletal"
       fuse_tolerance="0"
       id="path-effect14384-5-2"
       is_visible="true"
       normal_offset="0"
       pattern="m 217.02793,310.67147 0,3.32853 -16.01322,0 11.98549,-0.1422 -11.98549,-0.13869 11.98549,-0.13868 -11.98549,-0.13869 11.98549,-0.13869 -11.98549,-0.13869 11.98549,-0.13869 -11.98549,-0.13869 11.98549,-0.13868 -11.98549,-0.13869 11.98549,-0.1387 -11.98549,-0.13868 11.98549,-0.13869 -11.98549,-0.13869 11.98549,-0.13868 -11.98549,-0.1387 11.98549,-0.13869 -11.98549,-0.13869 11.98549,-0.13868 -11.98549,-0.13869 11.98549,-0.1387 -11.98549,-0.13867 11.98549,-0.1387 -11.98549,-0.13869 z"
       prop_scale="1"
       prop_units="false"
       scale_y_rel="false"
       spacing="0"
       tang_offset="0"
       vertical_pattern="false" />
    <inkscape:path-effect
       copytype="single_stretched"
       effect="skeletal"
       fuse_tolerance="0"
       id="path-effect14384-6"
       is_visible="true"
       normal_offset="0"
       pattern="m 217.02793,310.67147 0,3.32853 -16.01322,0 11.98549,-0.1422 -11.98549,-0.13869 11.98549,-0.13868 -11.98549,-0.13869 11.98549,-0.13869 -11.98549,-0.13869 11.98549,-0.13869 -11.98549,-0.13869 11.98549,-0.13868 -11.98549,-0.13869 11.98549,-0.1387 -11.98549,-0.13868 11.98549,-0.13869 -11.98549,-0.13869 11.98549,-0.13868 -11.98549,-0.1387 11.98549,-0.13869 -11.98549,-0.13869 11.98549,-0.13868 -11.98549,-0.13869 11.98549,-0.1387 -11.98549,-0.13867 11.98549,-0.1387 -11.98549,-0.13869 z"
       prop_scale="1"
       prop_units="false"
       scale_y_rel="false"
       spacing="0"
       tang_offset="0"
       vertical_pattern="false" />
    <inkscape:path-effect
       copytype="single_stretched"
       effect="skeletal"
       fuse_tolerance="0"
       id="path-effect14384-5-0"
       is_visible="true"
       normal_offset="0"
       pattern="m 217.02793,310.67147 0,3.32853 -16.01322,0 11.98549,-0.1422 -11.98549,-0.13869 11.98549,-0.13868 -11.98549,-0.13869 11.98549,-0.13869 -11.98549,-0.13869 11.98549,-0.13869 -11.98549,-0.13869 11.98549,-0.13868 -11.98549,-0.13869 11.98549,-0.1387 -11.98549,-0.13868 11.98549,-0.13869 -11.98549,-0.13869 11.98549,-0.13868 -11.98549,-0.1387 11.98549,-0.13869 -11.98549,-0.13869 11.98549,-0.13868 -11.98549,-0.13869 11.98549,-0.1387 -11.98549,-0.13867 11.98549,-0.1387 -11.98549,-0.13869 z"
       prop_scale="1"
       prop_units="false"
       scale_y_rel="false"
       spacing="0"
       tang_offset="0"
       vertical_pattern="false" />
    <inkscape:path-effect
       copytype="single_stretched"
       effect="skeletal"
       fuse_tolerance="0"
       id="path-effect14384-0-6"
       is_visible="true"
       normal_offset="0"
       pattern="m 217.02793,310.67147 0,3.32853 -16.01322,0 11.98549,-0.1422 -11.98549,-0.13869 11.98549,-0.13868 -11.98549,-0.13869 11.98549,-0.13869 -11.98549,-0.13869 11.98549,-0.13869 -11.98549,-0.13869 11.98549,-0.13868 -11.98549,-0.13869 11.98549,-0.1387 -11.98549,-0.13868 11.98549,-0.13869 -11.98549,-0.13869 11.98549,-0.13868 -11.98549,-0.1387 11.98549,-0.13869 -11.98549,-0.13869 11.98549,-0.13868 -11.98549,-0.13869 11.98549,-0.1387 -11.98549,-0.13867 11.98549,-0.1387 -11.98549,-0.13869 z"
       prop_scale="1"
       prop_units="false"
       scale_y_rel="false"
       spacing="0"
       tang_offset="0"
       vertical_pattern="false" />
    <inkscape:path-effect
       copytype="single_stretched"
       effect="skeletal"
       fuse_tolerance="0"
       id="path-effect14384-5-2-4"
       is_visible="true"
       normal_offset="0"
       pattern="m 217.02793,310.67147 0,3.32853 -16.01322,0 11.98549,-0.1422 -11.98549,-0.13869 11.98549,-0.13868 -11.98549,-0.13869 11.98549,-0.13869 -11.98549,-0.13869 11.98549,-0.13869 -11.98549,-0.13869 11.98549,-0.13868 -11.98549,-0.13869 11.98549,-0.1387 -11.98549,-0.13868 11.98549,-0.13869 -11.98549,-0.13869 11.98549,-0.13868 -11.98549,-0.1387 11.98549,-0.13869 -11.98549,-0.13869 11.98549,-0.13868 -11.98549,-0.13869 11.98549,-0.1387 -11.98549,-0.13867 11.98549,-0.1387 -11.98549,-0.13869 z"
       prop_scale="1"
       prop_units="false"
       scale_y_rel="false"
       spacing="0"
       tang_offset="0"
       vertical_pattern="false" />
  </defs>
  <g
     inkscape:groupmode="layer"
     id="layer9"
     inkscape:label="status"
     style="display:inline"
     transform="translate(-201,-285)">
    <path
       sodipodi:cx="-11.667262"
       sodipodi:cy="107.74711"
       d="m -11.667264,99.897414 10e-7,3.328526 c -0.78263,-0.001 -1.583491,0.21322 -2.260581,0.60573 -10e-7,0 -10e-7,0 -10e-7,0 -1.981399,1.02795 -2.856825,4.29509 -1.65486,6.17602 1.027954,1.9814 4.29509,2.85683 6.1760243,1.65486 3e-7,0 6e-7,0 9e-7,0 1.9813991,-1.02795 2.8568259,-4.29509 1.6548608,-6.17602 1.2184186,1.87143 0.3737493,5.16072 -1.6263624,6.22538 -10e-8,0 -2e-7,0 -3e-7,0 -1.9030833,1.23272 -5.2183223,0.3811 -6.3032443,-1.64722 0,0 0,0 -10e-7,0 -0.617121,-0.95745 -0.718579,-2.25935 -0.414374,-3.46423 -0.322119,1.20022 -0.241835,2.51004 0.366123,3.49209 0,0 0,0 0,0 1.072223,2.07466 4.420345,3.00758 6.4356475,1.76512 2e-7,0 5e-7,0 7e-7,0 2.102182,-1.09198 3.041878,-4.46542 1.7854687,-6.51159 1.288503,2.02764 0.4088013,5.44428 -1.7298807,6.60787 -10e-8,0 -3e-7,0 -4e-7,0 -2.0585068,1.30245 -5.5004568,0.41597 -6.6837978,-1.75023 0,0 -10e-7,0 -10e-7,0 -0.651454,-1.03398 -0.761759,-2.4054 -0.441107,-3.67287 -0.338341,1.26287 -0.248945,2.64211 0.39346,3.70038 0,0 0,0 10e-7,0 1.170801,2.21196 4.645221,3.17871 6.8145414,1.86665 3e-7,0 6e-7,0 8e-7,0 2.2394734,-1.19056 3.2130108,-4.6903 1.8869932,-6.89048 1.3581125,2.18165 0.4445715,5.72459 -1.8314032,6.98676 -1e-7,0 -3e-7,0 -4e-7,0 -2.2125258,1.37206 -5.7807768,0.45174 -7.0627018,-1.85175 0,0 0,0 0,0 -0.685903,-1.1102 -0.805321,-2.55106 -0.468447,-3.88117 -0.354565,1.32551 -0.256055,2.77419 0.420798,3.90868 0,0 0,0 0,0 1.269384,2.34925 4.870107,3.34985 7.1934504,1.96818 3e-7,0 6e-7,-1e-5 9e-7,-1e-5 2.3767695,-1.28914 3.3841497,-4.91517 1.9885212,-7.26938 1.4277234,2.33568 0.4803397,6.00492 -1.9329313,7.36567 -10e-8,0 -3e-7,0 -4e-7,0 -2.3665488,1.44167 -6.0611028,0.48751 -7.4416098,-1.95328 0,0 0,0 0,0 -0.720352,-1.18642 -0.848883,-2.69671 -0.495786,-4.08947 -0.370787,1.38816 -0.263165,2.90627 0.448137,4.11698 0,0 0,0 0,0 1.367967,2.48655 5.094992,3.52099 7.5723583,2.0697 3e-7,0 6e-7,0 1e-6,0 2.5140658,-1.38772 3.5552887,-5.14006 2.0900493,-7.64829 1.4973331,2.4897 0.5161045,6.28524 -2.0344614,7.74457 -10e-8,0 -3e-7,0 -4e-7,0 -2.5205698,1.51129 -6.3414238,0.52328 -7.8205088,-2.0548 0,0 0,0 0,0 -0.754799,-1.26264 -0.892442,-2.84237 -0.523122,-4.29777 -0.38701,1.4508 -0.270275,3.03835 0.475474,4.32528 1e-6,0 1e-6,0 1e-6,0 1.466545,2.62384 5.319869,3.69212 7.9512523,2.17122 3e-7,0 6e-7,0 10e-7,0 2.6513571,-1.4863 3.7264215,-5.36494 2.1915738,-8.02719 1.5669437,2.64372 0.551878,6.56557 -2.1359819,8.12348 -1e-7,0 -3e-7,0 -5e-7,0 -2.6745907,1.5809 -6.6217487,0.55905 -8.1994207,-2.15633 0,0 -10e-7,0 -10e-7,0 -0.789249,-1.33886 -0.936006,-2.98802 -0.550464,-4.50607 -0.403233,1.51345 -0.277384,3.17043 0.502815,4.53358 10e-7,0 10e-7,0 10e-7,0 1.565132,2.76114 5.544761,3.86326 8.3301692,2.27275 4e-7,0 7e-7,0 1.1e-6,0 2.7886547,-1.58488 3.8975596,-5.58982 2.2930999,-8.4061 1.6365535,2.79775 0.5876428,6.84589 -2.237512,8.50239 -1e-7,0 -3e-7,0 -5e-7,0 -2.8286117,1.6505 -6.9020697,0.59481 -8.5783197,-2.25786 -1e-6,0 -1e-6,0 -1e-6,0 -0.823697,-1.41509 -0.979565,-3.13368 -0.577799,-4.71437 -0.419457,1.57609 -0.284497,3.3025 0.53015,4.74188 0,0 1e-6,0 1e-6,0 1.66371,2.89843 5.769639,4.0344 8.7090682,2.37428 3e-7,0 7e-7,0 1.1e-6,0 2.9259497,-1.68347 4.0686995,-5.81471 2.39463,-8.78501 1.7061632,2.95177 0.6234077,7.12622 -2.3390421,8.88129 -1e-7,0 -3e-7,0 -5e-7,0 -2.9826337,1.72011 -7.1823907,0.63058 -8.9572187,-2.35939 -1e-6,0 -1e-6,0 -1e-6,0 -0.858144,-1.4913 -1.023124,-3.27932 -0.605135,-4.92266 -0.43568,1.63874 -0.291608,3.43458 0.557486,4.95017 0,0 0,0 10e-7,0 1.762288,3.03573 5.994516,4.20554 9.0879671,2.47581 4e-7,0 8e-7,0 1.2e-6,0 3.0632446,-1.78204 4.2398393,-6.03959 2.4961601,-9.16391 1.7757752,3.10579 0.6591792,7.40654 -2.4405681,9.2602 -2e-7,0 -4e-7,0 -6e-7,0 -3.1366577,1.78973 -7.4627207,0.66635 -9.3361367,-2.46091 0,0 0,0 0,0 -0.892594,-1.56753 -1.066688,-3.42499 -0.632476,-5.13097 -0.451903,1.70138 -0.298717,3.56666 0.584827,5.15848 0,0 0,0 1e-6,0 1.860874,3.17302 6.219409,4.37667 9.4668841,2.57734 4e-7,0 8e-7,-10e-6 1.2e-6,-10e-6 3.2005422,-1.88063 4.4109774,-6.26448 2.5976862,-9.54282 1.8453849,3.25982 0.694944,7.68687 -2.5420982,9.63911 -2e-7,0 -4e-7,0 -7e-7,0 -3.2906796,1.85933 -7.7430416,0.70211 -9.7150356,-2.56245 0,0 0,0 0,0 -0.927041,-1.64375 -1.110247,-3.57063 -0.659812,-5.33926 -0.468125,1.76402 -0.305827,3.69873 0.612164,5.36677 10e-7,0 10e-7,0 10e-7,0 1.959454,3.31032 6.444286,4.54781 9.845779,2.67886 5e-7,0 9e-7,0 1.3e-6,0 3.3378336,-1.97921 4.5821102,-6.48935 2.6992107,-9.92171 1.9149956,3.41383 0.7307175,7.96718 -2.6436187,10.018 -2e-7,0 -5e-7,0 -7e-7,0 -3.4446996,1.92895 -8.0233666,0.73789 -10.0939476,-2.66396 0,0 0,0 -1e-6,-1e-5 -0.961491,-1.71997 -1.153812,-3.71629 -0.687154,-5.54756 -0.484348,1.82667 -0.312935,3.83081 0.639507,5.57507 0,0 1e-6,0 1e-6,1e-5 2.05804,3.44761 6.669178,4.71894 10.224691,2.78038 4e-7,0 9e-7,0 1.3e-6,0 3.4751275,-2.07779 4.7532413,-6.71424 2.8007312,-10.30062 1.9846039,3.56785 0.7664843,8.2475 -2.7451432,10.3969 -2e-7,0 -5e-7,0 -7e-7,0 -3.5987176,1.99856 -8.3036826,0.77366 -10.4728416,-2.76549 -1e-6,0 -1e-6,0 -1e-6,0 -0.995939,-1.79619 -1.197372,-3.86194 -0.714492,-5.75586 -0.500571,1.88931 -0.320048,3.96289 0.666841,5.78337 1e-6,0 1e-6,0 1e-6,0 2.156618,3.58491 6.894056,4.89009 10.6035949,2.88192 5e-7,0 1e-6,0 1.4e-6,0 3.6124261,-2.17637 4.9243882,-6.93913 2.902267,-10.67953 2.0378646,3.73131 0.7553325,8.51526 -2.8749985,10.72676 -3e-7,0 -6e-7,0 -9e-7,0 -3.7307329,2.0376 -8.5141979,0.7552 -10.7253259,-2.87461 -2.037335,-3.73015 -0.755061,-8.51314 2.874226,-10.72389 1e-6,0 1e-6,0 2e-6,0 1.192864,-0.68698 2.548542,-1.050101 3.925021,-1.051356 z"
       sodipodi:end="10.995574"
       id="path14339"
       sodipodi:open="true"
       inkscape:path-effect="#path-effect14384"
       sodipodi:rx="6.1871843"
       sodipodi:ry="6.1871843"
       sodipodi:start="5.7595865"
       style="color:#000000;fill:#ffffff;fill-opacity:1;stroke:none;stroke-width:3.38507128000000002;marker:none;visibility:visible;display:inline;overflow:visible;enable-background:accumulate"
       transform="matrix(0.88624425,0,0,0.88624425,223.31923,201.52028)"
       sodipodi:type="arc" />
    <path
       sodipodi:cx="-11.667262"
       sodipodi:cy="107.74711"
       d="m -11.667264,99.897414 10e-7,3.328526 c -0.78263,-0.001 -1.583491,0.21322 -2.260581,0.60573 -10e-7,0 -10e-7,0 -10e-7,0 -1.981399,1.02795 -2.856825,4.29509 -1.65486,6.17602 1.027954,1.9814 4.29509,2.85683 6.1760243,1.65486 3e-7,0 6e-7,0 9e-7,0 1.9813991,-1.02795 2.8568259,-4.29509 1.6548608,-6.17602 1.2184186,1.87143 0.3737493,5.16072 -1.6263624,6.22538 -10e-8,0 -2e-7,0 -3e-7,0 -1.9030833,1.23272 -5.2183223,0.3811 -6.3032443,-1.64722 0,0 0,0 -10e-7,0 -0.617121,-0.95745 -0.718579,-2.25935 -0.414374,-3.46423 -0.322119,1.20022 -0.241835,2.51004 0.366123,3.49209 0,0 0,0 0,0 1.072223,2.07466 4.420345,3.00758 6.4356475,1.76512 2e-7,0 5e-7,0 7e-7,0 2.102182,-1.09198 3.041878,-4.46542 1.7854687,-6.51159 1.288503,2.02764 0.4088013,5.44428 -1.7298807,6.60787 -10e-8,0 -3e-7,0 -4e-7,0 -2.0585068,1.30245 -5.5004568,0.41597 -6.6837978,-1.75023 0,0 -10e-7,0 -10e-7,0 -0.651454,-1.03398 -0.761759,-2.4054 -0.441107,-3.67287 -0.338341,1.26287 -0.248945,2.64211 0.39346,3.70038 0,0 0,0 10e-7,0 1.170801,2.21196 4.645221,3.17871 6.8145414,1.86665 3e-7,0 6e-7,0 8e-7,0 2.2394734,-1.19056 3.2130108,-4.6903 1.8869932,-6.89048 1.3581125,2.18165 0.4445715,5.72459 -1.8314032,6.98676 -1e-7,0 -3e-7,0 -4e-7,0 -2.2125258,1.37206 -5.7807768,0.45174 -7.0627018,-1.85175 0,0 0,0 0,0 -0.685903,-1.1102 -0.805321,-2.55106 -0.468447,-3.88117 -0.354565,1.32551 -0.256055,2.77419 0.420798,3.90868 0,0 0,0 0,0 1.269384,2.34925 4.870107,3.34985 7.1934504,1.96818 3e-7,0 6e-7,-1e-5 9e-7,-1e-5 2.3767695,-1.28914 3.3841497,-4.91517 1.9885212,-7.26938 1.4277234,2.33568 0.4803397,6.00492 -1.9329313,7.36567 -10e-8,0 -3e-7,0 -4e-7,0 -2.3665488,1.44167 -6.0611028,0.48751 -7.4416098,-1.95328 0,0 0,0 0,0 -0.720352,-1.18642 -0.848883,-2.69671 -0.495786,-4.08947 -0.370787,1.38816 -0.263165,2.90627 0.448137,4.11698 0,0 0,0 0,0 1.367967,2.48655 5.094992,3.52099 7.5723583,2.0697 3e-7,0 6e-7,0 1e-6,0 2.5140658,-1.38772 3.5552887,-5.14006 2.0900493,-7.64829 1.4973331,2.4897 0.5161045,6.28524 -2.0344614,7.74457 -10e-8,0 -3e-7,0 -4e-7,0 -2.5205698,1.51129 -6.3414238,0.52328 -7.8205088,-2.0548 0,0 0,0 0,0 -0.754799,-1.26264 -0.892442,-2.84237 -0.523122,-4.29777 -0.38701,1.4508 -0.270275,3.03835 0.475474,4.32528 1e-6,0 1e-6,0 1e-6,0 1.466545,2.62384 5.319869,3.69212 7.9512523,2.17122 3e-7,0 6e-7,0 10e-7,0 2.6513571,-1.4863 3.7264215,-5.36494 2.1915738,-8.02719 1.5669437,2.64372 0.551878,6.56557 -2.1359819,8.12348 -1e-7,0 -3e-7,0 -5e-7,0 -2.6745907,1.5809 -6.6217487,0.55905 -8.1994207,-2.15633 0,0 -10e-7,0 -10e-7,0 -0.789249,-1.33886 -0.936006,-2.98802 -0.550464,-4.50607 -0.403233,1.51345 -0.277384,3.17043 0.502815,4.53358 10e-7,0 10e-7,0 10e-7,0 1.565132,2.76114 5.544761,3.86326 8.3301692,2.27275 4e-7,0 7e-7,0 1.1e-6,0 2.7886547,-1.58488 3.8975596,-5.58982 2.2930999,-8.4061 1.6365535,2.79775 0.5876428,6.84589 -2.237512,8.50239 -1e-7,0 -3e-7,0 -5e-7,0 -2.8286117,1.6505 -6.9020697,0.59481 -8.5783197,-2.25786 -1e-6,0 -1e-6,0 -1e-6,0 -0.823697,-1.41509 -0.979565,-3.13368 -0.577799,-4.71437 -0.419457,1.57609 -0.284497,3.3025 0.53015,4.74188 0,0 1e-6,0 1e-6,0 1.66371,2.89843 5.769639,4.0344 8.7090682,2.37428 3e-7,0 7e-7,0 1.1e-6,0 2.9259497,-1.68347 4.0686995,-5.81471 2.39463,-8.78501 1.7061632,2.95177 0.6234077,7.12622 -2.3390421,8.88129 -1e-7,0 -3e-7,0 -5e-7,0 -2.9826337,1.72011 -7.1823907,0.63058 -8.9572187,-2.35939 -1e-6,0 -1e-6,0 -1e-6,0 -0.858144,-1.4913 -1.023124,-3.27932 -0.605135,-4.92266 -0.43568,1.63874 -0.291608,3.43458 0.557486,4.95017 0,0 0,0 10e-7,0 1.762288,3.03573 5.994516,4.20554 9.0879671,2.47581 4e-7,0 8e-7,0 1.2e-6,0 3.0632446,-1.78204 4.2398393,-6.03959 2.4961601,-9.16391 1.7757752,3.10579 0.6591792,7.40654 -2.4405681,9.2602 -2e-7,0 -4e-7,0 -6e-7,0 -3.1366577,1.78973 -7.4627207,0.66635 -9.3361367,-2.46091 0,0 0,0 0,0 -0.892594,-1.56753 -1.066688,-3.42499 -0.632476,-5.13097 -0.451903,1.70138 -0.298717,3.56666 0.584827,5.15848 0,0 0,0 1e-6,0 1.860874,3.17302 6.219409,4.37667 9.4668841,2.57734 4e-7,0 8e-7,-10e-6 1.2e-6,-10e-6 3.2005422,-1.88063 4.4109774,-6.26448 2.5976862,-9.54282 1.8453849,3.25982 0.694944,7.68687 -2.5420982,9.63911 -2e-7,0 -4e-7,0 -7e-7,0 -3.2906796,1.85933 -7.7430416,0.70211 -9.7150356,-2.56245 0,0 0,0 0,0 -0.927041,-1.64375 -1.110247,-3.57063 -0.659812,-5.33926 -0.468125,1.76402 -0.305827,3.69873 0.612164,5.36677 10e-7,0 10e-7,0 10e-7,0 1.959454,3.31032 6.444286,4.54781 9.845779,2.67886 5e-7,0 9e-7,0 1.3e-6,0 3.3378336,-1.97921 4.5821102,-6.48935 2.6992107,-9.92171 1.9149956,3.41383 0.7307175,7.96718 -2.6436187,10.018 -2e-7,0 -5e-7,0 -7e-7,0 -3.4446996,1.92895 -8.0233666,0.73789 -10.0939476,-2.66396 0,0 0,0 -1e-6,-1e-5 -0.961491,-1.71997 -1.153812,-3.71629 -0.687154,-5.54756 -0.484348,1.82667 -0.312935,3.83081 0.639507,5.57507 0,0 1e-6,0 1e-6,1e-5 2.05804,3.44761 6.669178,4.71894 10.224691,2.78038 4e-7,0 9e-7,0 1.3e-6,0 3.4751275,-2.07779 4.7532413,-6.71424 2.8007312,-10.30062 1.9846039,3.56785 0.7664843,8.2475 -2.7451432,10.3969 -2e-7,0 -5e-7,0 -7e-7,0 -3.5987176,1.99856 -8.3036826,0.77366 -10.4728416,-2.76549 -1e-6,0 -1e-6,0 -1e-6,0 -0.995939,-1.79619 -1.197372,-3.86194 -0.714492,-5.75586 -0.500571,1.88931 -0.320048,3.96289 0.666841,5.78337 1e-6,0 1e-6,0 1e-6,0 2.156618,3.58491 6.894056,4.89009 10.6035949,2.88192 5e-7,0 1e-6,0 1.4e-6,0 3.6124261,-2.17637 4.9243882,-6.93913 2.902267,-10.67953 2.0378646,3.73131 0.7553325,8.51526 -2.8749985,10.72676 -3e-7,0 -6e-7,0 -9e-7,0 -3.7307329,2.0376 -8.5141979,0.7552 -10.7253259,-2.87461 -2.037335,-3.73015 -0.755061,-8.51314 2.874226,-10.72389 1e-6,0 1e-6,0 2e-6,0 1.192864,-0.68698 2.548542,-1.050101 3.925021,-1.051356 z"
       sodipodi:end="10.995574"
       id="path14339-2"
       sodipodi:open="true"
       inkscape:path-effect="#path-effect14384-5"
       sodipodi:rx="6.1871843"
       sodipodi:ry="6.1871843"
       sodipodi:start="5.7595865"
       style="color:#000000;fill:#ffffff;fill-opacity:1;stroke:none;stroke-width:3.38507128000000002;marker:none;visibility:visible;display:inline;overflow:visible;enable-background:accumulate"
       transform="matrix(-0.88624425,0,0,-0.88624425,202.68077,416.47972)"
       sodipodi:type="arc" />
    <path
       sodipodi:cx="-11.667262"
       sodipodi:cy="107.74711"
       d="m -11.667264,99.897414 10e-7,3.328526 c -0.78263,-0.001 -1.583491,0.21322 -2.260581,0.60573 -10e-7,0 -10e-7,0 -10e-7,0 -1.981399,1.02795 -2.856825,4.29509 -1.65486,6.17602 1.027954,1.9814 4.29509,2.85683 6.1760243,1.65486 3e-7,0 6e-7,0 9e-7,0 1.9813991,-1.02795 2.8568259,-4.29509 1.6548608,-6.17602 1.2184186,1.87143 0.3737493,5.16072 -1.6263624,6.22538 -10e-8,0 -2e-7,0 -3e-7,0 -1.9030833,1.23272 -5.2183223,0.3811 -6.3032443,-1.64722 0,0 0,0 -10e-7,0 -0.617121,-0.95745 -0.718579,-2.25935 -0.414374,-3.46423 -0.322119,1.20022 -0.241835,2.51004 0.366123,3.49209 0,0 0,0 0,0 1.072223,2.07466 4.420345,3.00758 6.4356475,1.76512 2e-7,0 5e-7,0 7e-7,0 2.102182,-1.09198 3.041878,-4.46542 1.7854687,-6.51159 1.288503,2.02764 0.4088013,5.44428 -1.7298807,6.60787 -10e-8,0 -3e-7,0 -4e-7,0 -2.0585068,1.30245 -5.5004568,0.41597 -6.6837978,-1.75023 0,0 -10e-7,0 -10e-7,0 -0.651454,-1.03398 -0.761759,-2.4054 -0.441107,-3.67287 -0.338341,1.26287 -0.248945,2.64211 0.39346,3.70038 0,0 0,0 10e-7,0 1.170801,2.21196 4.645221,3.17871 6.8145414,1.86665 3e-7,0 6e-7,0 8e-7,0 2.2394734,-1.19056 3.2130108,-4.6903 1.8869932,-6.89048 1.3581125,2.18165 0.4445715,5.72459 -1.8314032,6.98676 -1e-7,0 -3e-7,0 -4e-7,0 -2.2125258,1.37206 -5.7807768,0.45174 -7.0627018,-1.85175 0,0 0,0 0,0 -0.685903,-1.1102 -0.805321,-2.55106 -0.468447,-3.88117 -0.354565,1.32551 -0.256055,2.77419 0.420798,3.90868 0,0 0,0 0,0 1.269384,2.34925 4.870107,3.34985 7.1934504,1.96818 3e-7,0 6e-7,-1e-5 9e-7,-1e-5 2.3767695,-1.28914 3.3841497,-4.91517 1.9885212,-7.26938 1.4277234,2.33568 0.4803397,6.00492 -1.9329313,7.36567 -10e-8,0 -3e-7,0 -4e-7,0 -2.3665488,1.44167 -6.0611028,0.48751 -7.4416098,-1.95328 0,0 0,0 0,0 -0.720352,-1.18642 -0.848883,-2.69671 -0.495786,-4.08947 -0.370787,1.38816 -0.263165,2.90627 0.448137,4.11698 0,0 0,0 0,0 1.367967,2.48655 5.094992,3.52099 7.5723583,2.0697 3e-7,0 6e-7,0 1e-6,0 2.5140658,-1.38772 3.5552887,-5.14006 2.0900493,-7.64829 1.4973331,2.4897 0.5161045,6.28524 -2.0344614,7.74457 -10e-8,0 -3e-7,0 -4e-7,0 -2.5205698,1.51129 -6.3414238,0.52328 -7.8205088,-2.0548 0,0 0,0 0,0 -0.754799,-1.26264 -0.892442,-2.84237 -0.523122,-4.29777 -0.38701,1.4508 -0.270275,3.03835 0.475474,4.32528 1e-6,0 1e-6,0 1e-6,0 1.466545,2.62384 5.319869,3.69212 7.9512523,2.17122 3e-7,0 6e-7,0 10e-7,0 2.6513571,-1.4863 3.7264215,-5.36494 2.1915738,-8.02719 1.5669437,2.64372 0.551878,6.56557 -2.1359819,8.12348 -1e-7,0 -3e-7,0 -5e-7,0 -2.6745907,1.5809 -6.6217487,0.55905 -8.1994207,-2.15633 0,0 -10e-7,0 -10e-7,0 -0.789249,-1.33886 -0.936006,-2.98802 -0.550464,-4.50607 -0.403233,1.51345 -0.277384,3.17043 0.502815,4.53358 10e-7,0 10e-7,0 10e-7,0 1.565132,2.76114 5.544761,3.86326 8.3301692,2.27275 4e-7,0 7e-7,0 1.1e-6,0 2.7886547,-1.58488 3.8975596,-5.58982 2.2930999,-8.4061 1.6365535,2.79775 0.5876428,6.84589 -2.237512,8.50239 -1e-7,0 -3e-7,0 -5e-7,0 -2.8286117,1.6505 -6.9020697,0.59481 -8.5783197,-2.25786 -1e-6,0 -1e-6,0 -1e-6,0 -0.823697,-1.41509 -0.979565,-3.13368 -0.577799,-4.71437 -0.419457,1.57609 -0.284497,3.3025 0.53015,4.74188 0,0 1e-6,0 1e-6,0 1.66371,2.89843 5.769639,4.0344 8.7090682,2.37428 3e-7,0 7e-7,0 1.1e-6,0 2.9259497,-1.68347 4.0686995,-5.81471 2.39463,-8.78501 1.7061632,2.95177 0.6234077,7.12622 -2.3390421,8.88129 -1e-7,0 -3e-7,0 -5e-7,0 -2.9826337,1.72011 -7.1823907,0.63058 -8.9572187,-2.35939 -1e-6,0 -1e-6,0 -1e-6,0 -0.858144,-1.4913 -1.023124,-3.27932 -0.605135,-4.92266 -0.43568,1.63874 -0.291608,3.43458 0.557486,4.95017 0,0 0,0 10e-7,0 1.762288,3.03573 5.994516,4.20554 9.0879671,2.47581 4e-7,0 8e-7,0 1.2e-6,0 3.0632446,-1.78204 4.2398393,-6.03959 2.4961601,-9.16391 1.7757752,3.10579 0.6591792,7.40654 -2.4405681,9.2602 -2e-7,0 -4e-7,0 -6e-7,0 -3.1366577,1.78973 -7.4627207,0.66635 -9.3361367,-2.46091 0,0 0,0 0,0 -0.892594,-1.56753 -1.066688,-3.42499 -0.632476,-5.13097 -0.451903,1.70138 -0.298717,3.56666 0.584827,5.15848 0,0 0,0 1e-6,0 1.860874,3.17302 6.219409,4.37667 9.4668841,2.57734 4e-7,0 8e-7,-10e-6 1.2e-6,-10e-6 3.2005422,-1.88063 4.4109774,-6.26448 2.5976862,-9.54282 1.8453849,3.25982 0.694944,7.68687 -2.5420982,9.63911 -2e-7,0 -4e-7,0 -7e-7,0 -3.2906796,1.85933 -7.7430416,0.70211 -9.7150356,-2.56245 0,0 0,0 0,0 -0.927041,-1.64375 -1.110247,-3.57063 -0.659812,-5.33926 -0.468125,1.76402 -0.305827,3.69873 0.612164,5.36677 10e-7,0 10e-7,0 10e-7,0 1.959454,3.31032 6.444286,4.54781 9.845779,2.67886 5e-7,0 9e-7,0 1.3e-6,0 3.3378336,-1.97921 4.5821102,-6.48935 2.6992107,-9.92171 1.9149956,3.41383 0.7307175,7.96718 -2.6436187,10.018 -2e-7,0 -5e-7,0 -7e-7,0 -3.4446996,1.92895 -8.0233666,0.73789 -10.0939476,-2.66396 0,0 0,0 -1e-6,-1e-5 -0.961491,-1.71997 -1.153812,-3.71629 -0.687154,-5.54756 -0.484348,1.82667 -0.312935,3.83081 0.639507,5.57507 0,0 1e-6,0 1e-6,1e-5 2.05804,3.44761 6.669178,4.71894 10.224691,2.78038 4e-7,0 9e-7,0 1.3e-6,0 3.4751275,-2.07779 4.7532413,-6.71424 2.8007312,-10.30062 1.9846039,3.56785 0.7664843,8.2475 -2.7451432,10.3969 -2e-7,0 -5e-7,0 -7e-7,0 -3.5987176,1.99856 -8.3036826,0.77366 -10.4728416,-2.76549 -1e-6,0 -1e-6,0 -1e-6,0 -0.995939,-1.79619 -1.197372,-3.86194 -0.714492,-5.75586 -0.500571,1.88931 -0.320048,3.96289 0.666841,5.78337 1e-6,0 1e-6,0 1e-6,0 2.156618,3.58491 6.894056,4.89009 10.6035949,2.88192 5e-7,0 1e-6,0 1.4e-6,0 3.6124261,-2.17637 4.9243882,-6.93913 2.902267,-10.67953 2.0378646,3.73131 0.7553325,8.51526 -2.8749985,10.72676 -3e-7,0 -6e-7,0 -9e-7,0 -3.7307329,2.0376 -8.5141979,0.7552 -10.7253259,-2.87461 -2.037335,-3.73015 -0.755061,-8.51314 2.874226,-10.72389 1e-6,0 1e-6,0 2e-6,0 1.192864,-0.68698 2.548542,-1.050101 3.925021,-1.051356 z"
       sodipodi:end="10.995574"
       id="path14339-7"
       sodipodi:open="true"
       inkscape:path-effect="#path-effect14384-0"
       sodipodi:rx="6.1871843"
       sodipodi:ry="6.1871843"
       sodipodi:start="5.7595865"
       style="color:#000000;fill:#ffffff;fill-opacity:1;stroke:none;stroke-width:3.38507128000000002;marker:none;visibility:visible;display:inline;overflow:visible;enable-background:accumulate"
       transform="matrix(0.62666932,0.62666932,-0.62666932,0.62666932,311.81115,236.78244)"
       sodipodi:type="arc" />
    <path
       sodipodi:cx="-11.667262"
       sodipodi:cy="107.74711"
       d="m -11.667264,99.897414 10e-7,3.328526 c -0.78263,-0.001 -1.583491,0.21322 -2.260581,0.60573 -10e-7,0 -10e-7,0 -10e-7,0 -1.981399,1.02795 -2.856825,4.29509 -1.65486,6.17602 1.027954,1.9814 4.29509,2.85683 6.1760243,1.65486 3e-7,0 6e-7,0 9e-7,0 1.9813991,-1.02795 2.8568259,-4.29509 1.6548608,-6.17602 1.2184186,1.87143 0.3737493,5.16072 -1.6263624,6.22538 -10e-8,0 -2e-7,0 -3e-7,0 -1.9030833,1.23272 -5.2183223,0.3811 -6.3032443,-1.64722 0,0 0,0 -10e-7,0 -0.617121,-0.95745 -0.718579,-2.25935 -0.414374,-3.46423 -0.322119,1.20022 -0.241835,2.51004 0.366123,3.49209 0,0 0,0 0,0 1.072223,2.07466 4.420345,3.00758 6.4356475,1.76512 2e-7,0 5e-7,0 7e-7,0 2.102182,-1.09198 3.041878,-4.46542 1.7854687,-6.51159 1.288503,2.02764 0.4088013,5.44428 -1.7298807,6.60787 -10e-8,0 -3e-7,0 -4e-7,0 -2.0585068,1.30245 -5.5004568,0.41597 -6.6837978,-1.75023 0,0 -10e-7,0 -10e-7,0 -0.651454,-1.03398 -0.761759,-2.4054 -0.441107,-3.67287 -0.338341,1.26287 -0.248945,2.64211 0.39346,3.70038 0,0 0,0 10e-7,0 1.170801,2.21196 4.645221,3.17871 6.8145414,1.86665 3e-7,0 6e-7,0 8e-7,0 2.2394734,-1.19056 3.2130108,-4.6903 1.8869932,-6.89048 1.3581125,2.18165 0.4445715,5.72459 -1.8314032,6.98676 -1e-7,0 -3e-7,0 -4e-7,0 -2.2125258,1.37206 -5.7807768,0.45174 -7.0627018,-1.85175 0,0 0,0 0,0 -0.685903,-1.1102 -0.805321,-2.55106 -0.468447,-3.88117 -0.354565,1.32551 -0.256055,2.77419 0.420798,3.90868 0,0 0,0 0,0 1.269384,2.34925 4.870107,3.34985 7.1934504,1.96818 3e-7,0 6e-7,-1e-5 9e-7,-1e-5 2.3767695,-1.28914 3.3841497,-4.91517 1.9885212,-7.26938 1.4277234,2.33568 0.4803397,6.00492 -1.9329313,7.36567 -10e-8,0 -3e-7,0 -4e-7,0 -2.3665488,1.44167 -6.0611028,0.48751 -7.4416098,-1.95328 0,0 0,0 0,0 -0.720352,-1.18642 -0.848883,-2.69671 -0.495786,-4.08947 -0.370787,1.38816 -0.263165,2.90627 0.448137,4.11698 0,0 0,0 0,0 1.367967,2.48655 5.094992,3.52099 7.5723583,2.0697 3e-7,0 6e-7,0 1e-6,0 2.5140658,-1.38772 3.5552887,-5.14006 2.0900493,-7.64829 1.4973331,2.4897 0.5161045,6.28524 -2.0344614,7.74457 -10e-8,0 -3e-7,0 -4e-7,0 -2.5205698,1.51129 -6.3414238,0.52328 -7.8205088,-2.0548 0,0 0,0 0,0 -0.754799,-1.26264 -0.892442,-2.84237 -0.523122,-4.29777 -0.38701,1.4508 -0.270275,3.03835 0.475474,4.32528 1e-6,0 1e-6,0 1e-6,0 1.466545,2.62384 5.319869,3.69212 7.9512523,2.17122 3e-7,0 6e-7,0 10e-7,0 2.6513571,-1.4863 3.7264215,-5.36494 2.1915738,-8.02719 1.5669437,2.64372 0.551878,6.56557 -2.1359819,8.12348 -1e-7,0 -3e-7,0 -5e-7,0 -2.6745907,1.5809 -6.6217487,0.55905 -8.1994207,-2.15633 0,0 -10e-7,0 -10e-7,0 -0.789249,-1.33886 -0.936006,-2.98802 -0.550464,-4.50607 -0.403233,1.51345 -0.277384,3.17043 0.502815,4.53358 10e-7,0 10e-7,0 10e-7,0 1.565132,2.76114 5.544761,3.86326 8.3301692,2.27275 4e-7,0 7e-7,0 1.1e-6,0 2.7886547,-1.58488 3.8975596,-5.58982 2.2930999,-8.4061 1.6365535,2.79775 0.5876428,6.84589 -2.237512,8.50239 -1e-7,0 -3e-7,0 -5e-7,0 -2.8286117,1.6505 -6.9020697,0.59481 -8.5783197,-2.25786 -1e-6,0 -1e-6,0 -1e-6,0 -0.823697,-1.41509 -0.979565,-3.13368 -0.577799,-4.71437 -0.419457,1.57609 -0.284497,3.3025 0.53015,4.74188 0,0 1e-6,0 1e-6,0 1.66371,2.89843 5.769639,4.0344 8.7090682,2.37428 3e-7,0 7e-7,0 1.1e-6,0 2.9259497,-1.68347 4.0686995,-5.81471 2.39463,-8.78501 1.7061632,2.95177 0.6234077,7.12622 -2.3390421,8.88129 -1e-7,0 -3e-7,0 -5e-7,0 -2.9826337,1.72011 -7.1823907,0.63058 -8.9572187,-2.35939 -1e-6,0 -1e-6,0 -1e-6,0 -0.858144,-1.4913 -1.023124,-3.27932 -0.605135,-4.92266 -0.43568,1.63874 -0.291608,3.43458 0.557486,4.95017 0,0 0,0 10e-7,0 1.762288,3.03573 5.994516,4.20554 9.0879671,2.47581 4e-7,0 8e-7,0 1.2e-6,0 3.0632446,-1.78204 4.2398393,-6.03959 2.4961601,-9.16391 1.7757752,3.10579 0.6591792,7.40654 -2.4405681,9.2602 -2e-7,0 -4e-7,0 -6e-7,0 -3.1366577,1.78973 -7.4627207,0.66635 -9.3361367,-2.46091 0,0 0,0 0,0 -0.892594,-1.56753 -1.066688,-3.42499 -0.632476,-5.13097 -0.451903,1.70138 -0.298717,3.56666 0.584827,5.15848 0,0 0,0 1e-6,0 1.860874,3.17302 6.219409,4.37667 9.4668841,2.57734 4e-7,0 8e-7,-10e-6 1.2e-6,-10e-6 3.2005422,-1.88063 4.4109774,-6.26448 2.5976862,-9.54282 1.8453849,3.25982 0.694944,7.68687 -2.5420982,9.63911 -2e-7,0 -4e-7,0 -7e-7,0 -3.2906796,1.85933 -7.7430416,0.70211 -9.7150356,-2.56245 0,0 0,0 0,0 -0.927041,-1.64375 -1.110247,-3.57063 -0.659812,-5.33926 -0.468125,1.76402 -0.305827,3.69873 0.612164,5.36677 10e-7,0 10e-7,0 10e-7,0 1.959454,3.31032 6.444286,4.54781 9.845779,2.67886 5e-7,0 9e-7,0 1.3e-6,0 3.3378336,-1.97921 4.5821102,-6.48935 2.6992107,-9.92171 1.9149956,3.41383 0.7307175,7.96718 -2.6436187,10.018 -2e-7,0 -5e-7,0 -7e-7,0 -3.4446996,1.92895 -8.0233666,0.73789 -10.0939476,-2.66396 0,0 0,0 -1e-6,-1e-5 -0.961491,-1.71997 -1.153812,-3.71629 -0.687154,-5.54756 -0.484348,1.82667 -0.312935,3.83081 0.639507,5.57507 0,0 1e-6,0 1e-6,1e-5 2.05804,3.44761 6.669178,4.71894 10.224691,2.78038 4e-7,0 9e-7,0 1.3e-6,0 3.4751275,-2.07779 4.7532413,-6.71424 2.8007312,-10.30062 1.9846039,3.56785 0.7664843,8.2475 -2.7451432,10.3969 -2e-7,0 -5e-7,0 -7e-7,0 -3.5987176,1.99856 -8.3036826,0.77366 -10.4728416,-2.76549 -1e-6,0 -1e-6,0 -1e-6,0 -0.995939,-1.79619 -1.197372,-3.86194 -0.714492,-5.75586 -0.500571,1.88931 -0.320048,3.96289 0.666841,5.78337 1e-6,0 1e-6,0 1e-6,0 2.156618,3.58491 6.894056,4.89009 10.6035949,2.88192 5e-7,0 1e-6,0 1.4e-6,0 3.6124261,-2.17637 4.9243882,-6.93913 2.902267,-10.67953 2.0378646,3.73131 0.7553325,8.51526 -2.8749985,10.72676 -3e-7,0 -6e-7,0 -9e-7,0 -3.7307329,2.0376 -8.5141979,0.7552 -10.7253259,-2.87461 -2.037335,-3.73015 -0.755061,-8.51314 2.874226,-10.72389 1e-6,0 1e-6,0 2e-6,0 1.192864,-0.68698 2.548542,-1.050101 3.925021,-1.051356 z"
       sodipodi:end="10.995574"
       id="path14339-2-7"
       sodipodi:open="true"
       inkscape:path-effect="#path-effect14384-5-2"
       sodipodi:rx="6.1871843"
       sodipodi:ry="6.1871843"
       sodipodi:start="5.7595865"
       style="color:#000000;fill:#ffffff;fill-opacity:1;stroke:none;stroke-width:3.38507128000000002;marker:none;visibility:visible;display:inline;overflow:visible;enable-background:accumulate"
       transform="matrix(-0.62666932,-0.62666932,0.62666932,-0.62666932,162.18885,381.21756)"
       sodipodi:type="arc" />
    <path
       sodipodi:cx="-11.667262"
       sodipodi:cy="107.74711"
       d="m -11.667264,99.897414 10e-7,3.328526 c -0.78263,-0.001 -1.583491,0.21322 -2.260581,0.60573 -10e-7,0 -10e-7,0 -10e-7,0 -1.981399,1.02795 -2.856825,4.29509 -1.65486,6.17602 1.027954,1.9814 4.29509,2.85683 6.1760243,1.65486 3e-7,0 6e-7,0 9e-7,0 1.9813991,-1.02795 2.8568259,-4.29509 1.6548608,-6.17602 1.2184186,1.87143 0.3737493,5.16072 -1.6263624,6.22538 -10e-8,0 -2e-7,0 -3e-7,0 -1.9030833,1.23272 -5.2183223,0.3811 -6.3032443,-1.64722 0,0 0,0 -10e-7,0 -0.617121,-0.95745 -0.718579,-2.25935 -0.414374,-3.46423 -0.322119,1.20022 -0.241835,2.51004 0.366123,3.49209 0,0 0,0 0,0 1.072223,2.07466 4.420345,3.00758 6.4356475,1.76512 2e-7,0 5e-7,0 7e-7,0 2.102182,-1.09198 3.041878,-4.46542 1.7854687,-6.51159 1.288503,2.02764 0.4088013,5.44428 -1.7298807,6.60787 -10e-8,0 -3e-7,0 -4e-7,0 -2.0585068,1.30245 -5.5004568,0.41597 -6.6837978,-1.75023 0,0 -10e-7,0 -10e-7,0 -0.651454,-1.03398 -0.761759,-2.4054 -0.441107,-3.67287 -0.338341,1.26287 -0.248945,2.64211 0.39346,3.70038 0,0 0,0 10e-7,0 1.170801,2.21196 4.645221,3.17871 6.8145414,1.86665 3e-7,0 6e-7,0 8e-7,0 2.2394734,-1.19056 3.2130108,-4.6903 1.8869932,-6.89048 1.3581125,2.18165 0.4445715,5.72459 -1.8314032,6.98676 -1e-7,0 -3e-7,0 -4e-7,0 -2.2125258,1.37206 -5.7807768,0.45174 -7.0627018,-1.85175 0,0 0,0 0,0 -0.685903,-1.1102 -0.805321,-2.55106 -0.468447,-3.88117 -0.354565,1.32551 -0.256055,2.77419 0.420798,3.90868 0,0 0,0 0,0 1.269384,2.34925 4.870107,3.34985 7.1934504,1.96818 3e-7,0 6e-7,-1e-5 9e-7,-1e-5 2.3767695,-1.28914 3.3841497,-4.91517 1.9885212,-7.26938 1.4277234,2.33568 0.4803397,6.00492 -1.9329313,7.36567 -10e-8,0 -3e-7,0 -4e-7,0 -2.3665488,1.44167 -6.0611028,0.48751 -7.4416098,-1.95328 0,0 0,0 0,0 -0.720352,-1.18642 -0.848883,-2.69671 -0.495786,-4.08947 -0.370787,1.38816 -0.263165,2.90627 0.448137,4.11698 0,0 0,0 0,0 1.367967,2.48655 5.094992,3.52099 7.5723583,2.0697 3e-7,0 6e-7,0 1e-6,0 2.5140658,-1.38772 3.5552887,-5.14006 2.0900493,-7.64829 1.4973331,2.4897 0.5161045,6.28524 -2.0344614,7.74457 -10e-8,0 -3e-7,0 -4e-7,0 -2.5205698,1.51129 -6.3414238,0.52328 -7.8205088,-2.0548 0,0 0,0 0,0 -0.754799,-1.26264 -0.892442,-2.84237 -0.523122,-4.29777 -0.38701,1.4508 -0.270275,3.03835 0.475474,4.32528 1e-6,0 1e-6,0 1e-6,0 1.466545,2.62384 5.319869,3.69212 7.9512523,2.17122 3e-7,0 6e-7,0 10e-7,0 2.6513571,-1.4863 3.7264215,-5.36494 2.1915738,-8.02719 1.5669437,2.64372 0.551878,6.56557 -2.1359819,8.12348 -1e-7,0 -3e-7,0 -5e-7,0 -2.6745907,1.5809 -6.6217487,0.55905 -8.1994207,-2.15633 0,0 -10e-7,0 -10e-7,0 -0.789249,-1.33886 -0.936006,-2.98802 -0.550464,-4.50607 -0.403233,1.51345 -0.277384,3.17043 0.502815,4.53358 10e-7,0 10e-7,0 10e-7,0 1.565132,2.76114 5.544761,3.86326 8.3301692,2.27275 4e-7,0 7e-7,0 1.1e-6,0 2.7886547,-1.58488 3.8975596,-5.58982 2.2930999,-8.4061 1.6365535,2.79775 0.5876428,6.84589 -2.237512,8.50239 -1e-7,0 -3e-7,0 -5e-7,0 -2.8286117,1.6505 -6.9020697,0.59481 -8.5783197,-2.25786 -1e-6,0 -1e-6,0 -1e-6,0 -0.823697,-1.41509 -0.979565,-3.13368 -0.577799,-4.71437 -0.419457,1.57609 -0.284497,3.3025 0.53015,4.74188 0,0 1e-6,0 1e-6,0 1.66371,2.89843 5.769639,4.0344 8.7090682,2.37428 3e-7,0 7e-7,0 1.1e-6,0 2.9259497,-1.68347 4.0686995,-5.81471 2.39463,-8.78501 1.7061632,2.95177 0.6234077,7.12622 -2.3390421,8.88129 -1e-7,0 -3e-7,0 -5e-7,0 -2.9826337,1.72011 -7.1823907,0.63058 -8.9572187,-2.35939 -1e-6,0 -1e-6,0 -1e-6,0 -0.858144,-1.4913 -1.023124,-3.27932 -0.605135,-4.92266 -0.43568,1.63874 -0.291608,3.43458 0.557486,4.95017 0,0 0,0 10e-7,0 1.762288,3.03573 5.994516,4.20554 9.0879671,2.47581 4e-7,0 8e-7,0 1.2e-6,0 3.0632446,-1.78204 4.2398393,-6.03959 2.4961601,-9.16391 1.7757752,3.10579 0.6591792,7.40654 -2.4405681,9.2602 -2e-7,0 -4e-7,0 -6e-7,0 -3.1366577,1.78973 -7.4627207,0.66635 -9.3361367,-2.46091 0,0 0,0 0,0 -0.892594,-1.56753 -1.066688,-3.42499 -0.632476,-5.13097 -0.451903,1.70138 -0.298717,3.56666 0.584827,5.15848 0,0 0,0 1e-6,0 1.860874,3.17302 6.219409,4.37667 9.4668841,2.57734 4e-7,0 8e-7,-10e-6 1.2e-6,-10e-6 3.2005422,-1.88063 4.4109774,-6.26448 2.5976862,-9.54282 1.8453849,3.25982 0.694944,7.68687 -2.5420982,9.63911 -2e-7,0 -4e-7,0 -7e-7,0 -3.2906796,1.85933 -7.7430416,0.70211 -9.7150356,-2.56245 0,0 0,0 0,0 -0.927041,-1.64375 -1.110247,-3.57063 -0.659812,-5.33926 -0.468125,1.76402 -0.305827,3.69873 0.612164,5.36677 10e-7,0 10e-7,0 10e-7,0 1.959454,3.31032 6.444286,4.54781 9.845779,2.67886 5e-7,0 9e-7,0 1.3e-6,0 3.3378336,-1.97921 4.5821102,-6.48935 2.6992107,-9.92171 1.9149956,3.41383 0.7307175,7.96718 -2.6436187,10.018 -2e-7,0 -5e-7,0 -7e-7,0 -3.4446996,1.92895 -8.0233666,0.73789 -10.0939476,-2.66396 0,0 0,0 -1e-6,-1e-5 -0.961491,-1.71997 -1.153812,-3.71629 -0.687154,-5.54756 -0.484348,1.82667 -0.312935,3.83081 0.639507,5.57507 0,0 1e-6,0 1e-6,1e-5 2.05804,3.44761 6.669178,4.71894 10.224691,2.78038 4e-7,0 9e-7,0 1.3e-6,0 3.4751275,-2.07779 4.7532413,-6.71424 2.8007312,-10.30062 1.9846039,3.56785 0.7664843,8.2475 -2.7451432,10.3969 -2e-7,0 -5e-7,0 -7e-7,0 -3.5987176,1.99856 -8.3036826,0.77366 -10.4728416,-2.76549 -1e-6,0 -1e-6,0 -1e-6,0 -0.995939,-1.79619 -1.197372,-3.86194 -0.714492,-5.75586 -0.500571,1.88931 -0.320048,3.96289 0.666841,5.78337 1e-6,0 1e-6,0 1e-6,0 2.156618,3.58491 6.894056,4.89009 10.6035949,2.88192 5e-7,0 1e-6,0 1.4e-6,0 3.6124261,-2.17637 4.9243882,-6.93913 2.902267,-10.67953 2.0378646,3.73131 0.7553325,8.51526 -2.8749985,10.72676 -3e-7,0 -6e-7,0 -9e-7,0 -3.7307329,2.0376 -8.5141979,0.7552 -10.7253259,-2.87461 -2.037335,-3.73015 -0.755061,-8.51314 2.874226,-10.72389 1e-6,0 1e-6,0 2e-6,0 1.192864,-0.68698 2.548542,-1.050101 3.925021,-1.051356 z"
       sodipodi:end="10.995574"
       id="path14339-6"
       sodipodi:open="true"
       inkscape:path-effect="#path-effect14384-6"
       sodipodi:rx="6.1871843"
       sodipodi:ry="6.1871843"
       sodipodi:start="5.7595865"
       style="color:#000000;fill:#ffffff;fill-opacity:1;stroke:none;stroke-width:3.38507128000000002;marker:none;visibility:visible;display:inline;overflow:visible;enable-background:accumulate"
       transform="matrix(0,0.88624425,-0.88624425,0,356.47972,307.31923)"
       sodipodi:type="arc" />
    <path
       sodipodi:cx="-11.667262"
       sodipodi:cy="107.74711"
       d="m -11.667264,99.897414 10e-7,3.328526 c -0.78263,-0.001 -1.583491,0.21322 -2.260581,0.60573 -10e-7,0 -10e-7,0 -10e-7,0 -1.981399,1.02795 -2.856825,4.29509 -1.65486,6.17602 1.027954,1.9814 4.29509,2.85683 6.1760243,1.65486 3e-7,0 6e-7,0 9e-7,0 1.9813991,-1.02795 2.8568259,-4.29509 1.6548608,-6.17602 1.2184186,1.87143 0.3737493,5.16072 -1.6263624,6.22538 -10e-8,0 -2e-7,0 -3e-7,0 -1.9030833,1.23272 -5.2183223,0.3811 -6.3032443,-1.64722 0,0 0,0 -10e-7,0 -0.617121,-0.95745 -0.718579,-2.25935 -0.414374,-3.46423 -0.322119,1.20022 -0.241835,2.51004 0.366123,3.49209 0,0 0,0 0,0 1.072223,2.07466 4.420345,3.00758 6.4356475,1.76512 2e-7,0 5e-7,0 7e-7,0 2.102182,-1.09198 3.041878,-4.46542 1.7854687,-6.51159 1.288503,2.02764 0.4088013,5.44428 -1.7298807,6.60787 -10e-8,0 -3e-7,0 -4e-7,0 -2.0585068,1.30245 -5.5004568,0.41597 -6.6837978,-1.75023 0,0 -10e-7,0 -10e-7,0 -0.651454,-1.03398 -0.761759,-2.4054 -0.441107,-3.67287 -0.338341,1.26287 -0.248945,2.64211 0.39346,3.70038 0,0 0,0 10e-7,0 1.170801,2.21196 4.645221,3.17871 6.8145414,1.86665 3e-7,0 6e-7,0 8e-7,0 2.2394734,-1.19056 3.2130108,-4.6903 1.8869932,-6.89048 1.3581125,2.18165 0.4445715,5.72459 -1.8314032,6.98676 -1e-7,0 -3e-7,0 -4e-7,0 -2.2125258,1.37206 -5.7807768,0.45174 -7.0627018,-1.85175 0,0 0,0 0,0 -0.685903,-1.1102 -0.805321,-2.55106 -0.468447,-3.88117 -0.354565,1.32551 -0.256055,2.77419 0.420798,3.90868 0,0 0,0 0,0 1.269384,2.34925 4.870107,3.34985 7.1934504,1.96818 3e-7,0 6e-7,-1e-5 9e-7,-1e-5 2.3767695,-1.28914 3.3841497,-4.91517 1.9885212,-7.26938 1.4277234,2.33568 0.4803397,6.00492 -1.9329313,7.36567 -10e-8,0 -3e-7,0 -4e-7,0 -2.3665488,1.44167 -6.0611028,0.48751 -7.4416098,-1.95328 0,0 0,0 0,0 -0.720352,-1.18642 -0.848883,-2.69671 -0.495786,-4.08947 -0.370787,1.38816 -0.263165,2.90627 0.448137,4.11698 0,0 0,0 0,0 1.367967,2.48655 5.094992,3.52099 7.5723583,2.0697 3e-7,0 6e-7,0 1e-6,0 2.5140658,-1.38772 3.5552887,-5.14006 2.0900493,-7.64829 1.4973331,2.4897 0.5161045,6.28524 -2.0344614,7.74457 -10e-8,0 -3e-7,0 -4e-7,0 -2.5205698,1.51129 -6.3414238,0.52328 -7.8205088,-2.0548 0,0 0,0 0,0 -0.754799,-1.26264 -0.892442,-2.84237 -0.523122,-4.29777 -0.38701,1.4508 -0.270275,3.03835 0.475474,4.32528 1e-6,0 1e-6,0 1e-6,0 1.466545,2.62384 5.319869,3.69212 7.9512523,2.17122 3e-7,0 6e-7,0 10e-7,0 2.6513571,-1.4863 3.7264215,-5.36494 2.1915738,-8.02719 1.5669437,2.64372 0.551878,6.56557 -2.1359819,8.12348 -1e-7,0 -3e-7,0 -5e-7,0 -2.6745907,1.5809 -6.6217487,0.55905 -8.1994207,-2.15633 0,0 -10e-7,0 -10e-7,0 -0.789249,-1.33886 -0.936006,-2.98802 -0.550464,-4.50607 -0.403233,1.51345 -0.277384,3.17043 0.502815,4.53358 10e-7,0 10e-7,0 10e-7,0 1.565132,2.76114 5.544761,3.86326 8.3301692,2.27275 4e-7,0 7e-7,0 1.1e-6,0 2.7886547,-1.58488 3.8975596,-5.58982 2.2930999,-8.4061 1.6365535,2.79775 0.5876428,6.84589 -2.237512,8.50239 -1e-7,0 -3e-7,0 -5e-7,0 -2.8286117,1.6505 -6.9020697,0.59481 -8.5783197,-2.25786 -1e-6,0 -1e-6,0 -1e-6,0 -0.823697,-1.41509 -0.979565,-3.13368 -0.577799,-4.71437 -0.419457,1.57609 -0.284497,3.3025 0.53015,4.74188 0,0 1e-6,0 1e-6,0 1.66371,2.89843 5.769639,4.0344 8.7090682,2.37428 3e-7,0 7e-7,0 1.1e-6,0 2.9259497,-1.68347 4.0686995,-5.81471 2.39463,-8.78501 1.7061632,2.95177 0.6234077,7.12622 -2.3390421,8.88129 -1e-7,0 -3e-7,0 -5e-7,0 -2.9826337,1.72011 -7.1823907,0.63058 -8.9572187,-2.35939 -1e-6,0 -1e-6,0 -1e-6,0 -0.858144,-1.4913 -1.023124,-3.27932 -0.605135,-4.92266 -0.43568,1.63874 -0.291608,3.43458 0.557486,4.95017 0,0 0,0 10e-7,0 1.762288,3.03573 5.994516,4.20554 9.0879671,2.47581 4e-7,0 8e-7,0 1.2e-6,0 3.0632446,-1.78204 4.2398393,-6.03959 2.4961601,-9.16391 1.7757752,3.10579 0.6591792,7.40654 -2.4405681,9.2602 -2e-7,0 -4e-7,0 -6e-7,0 -3.1366577,1.78973 -7.4627207,0.66635 -9.3361367,-2.46091 0,0 0,0 0,0 -0.892594,-1.56753 -1.066688,-3.42499 -0.632476,-5.13097 -0.451903,1.70138 -0.298717,3.56666 0.584827,5.15848 0,0 0,0 1e-6,0 1.860874,3.17302 6.219409,4.37667 9.4668841,2.57734 4e-7,0 8e-7,-10e-6 1.2e-6,-10e-6 3.2005422,-1.88063 4.4109774,-6.26448 2.5976862,-9.54282 1.8453849,3.25982 0.694944,7.68687 -2.5420982,9.63911 -2e-7,0 -4e-7,0 -7e-7,0 -3.2906796,1.85933 -7.7430416,0.70211 -9.7150356,-2.56245 0,0 0,0 0,0 -0.927041,-1.64375 -1.110247,-3.57063 -0.659812,-5.33926 -0.468125,1.76402 -0.305827,3.69873 0.612164,5.36677 10e-7,0 10e-7,0 10e-7,0 1.959454,3.31032 6.444286,4.54781 9.845779,2.67886 5e-7,0 9e-7,0 1.3e-6,0 3.3378336,-1.97921 4.5821102,-6.48935 2.6992107,-9.92171 1.9149956,3.41383 0.7307175,7.96718 -2.6436187,10.018 -2e-7,0 -5e-7,0 -7e-7,0 -3.4446996,1.92895 -8.0233666,0.73789 -10.0939476,-2.66396 0,0 0,0 -1e-6,-1e-5 -0.961491,-1.71997 -1.153812,-3.71629 -0.687154,-5.54756 -0.484348,1.82667 -0.312935,3.83081 0.639507,5.57507 0,0 1e-6,0 1e-6,1e-5 2.05804,3.44761 6.669178,4.71894 10.224691,2.78038 4e-7,0 9e-7,0 1.3e-6,0 3.4751275,-2.07779 4.7532413,-6.71424 2.8007312,-10.30062 1.9846039,3.56785 0.7664843,8.2475 -2.7451432,10.3969 -2e-7,0 -5e-7,0 -7e-7,0 -3.5987176,1.99856 -8.3036826,0.77366 -10.4728416,-2.76549 -1e-6,0 -1e-6,0 -1e-6,0 -0.995939,-1.79619 -1.197372,-3.86194 -0.714492,-5.75586 -0.500571,1.88931 -0.320048,3.96289 0.666841,5.78337 1e-6,0 1e-6,0 1e-6,0 2.156618,3.58491 6.894056,4.89009 10.6035949,2.88192 5e-7,0 1e-6,0 1.4e-6,0 3.6124261,-2.17637 4.9243882,-6.93913 2.902267,-10.67953 2.0378646,3.73131 0.7553325,8.51526 -2.8749985,10.72676 -3e-7,0 -6e-7,0 -9e-7,0 -3.7307329,2.0376 -8.5141979,0.7552 -10.7253259,-2.87461 -2.037335,-3.73015 -0.755061,-8.51314 2.874226,-10.72389 1e-6,0 1e-6,0 2e-6,0 1.192864,-0.68698 2.548542,-1.050101 3.925021,-1.051356 z"
       sodipodi:end="10.995574"
       id="path14339-2-4"
       sodipodi:open="true"
       inkscape:path-effect="#path-effect14384-5-0"
       sodipodi:rx="6.1871843"
       sodipodi:ry="6.1871843"
       sodipodi:start="5.7595865"
       style="color:#000000;fill:#ffffff;fill-opacity:1;stroke:none;stroke-width:3.38507128000000002;marker:none;visibility:visible;display:inline;overflow:visible;enable-background:accumulate"
       transform="matrix(0,-0.88624425,0.88624425,0,165.52028,310.68077)"
       sodipodi:type="arc" />
    <path
       sodipodi:cx="-11.667262"
       sodipodi:cy="107.74711"
       d="m -11.667264,99.897414 10e-7,3.328526 c -0.78263,-0.001 -1.583491,0.21322 -2.260581,0.60573 -10e-7,0 -10e-7,0 -10e-7,0 -1.981399,1.02795 -2.856825,4.29509 -1.65486,6.17602 1.027954,1.9814 4.29509,2.85683 6.1760243,1.65486 3e-7,0 6e-7,0 9e-7,0 1.9813991,-1.02795 2.8568259,-4.29509 1.6548608,-6.17602 1.2184186,1.87143 0.3737493,5.16072 -1.6263624,6.22538 -10e-8,0 -2e-7,0 -3e-7,0 -1.9030833,1.23272 -5.2183223,0.3811 -6.3032443,-1.64722 0,0 0,0 -10e-7,0 -0.617121,-0.95745 -0.718579,-2.25935 -0.414374,-3.46423 -0.322119,1.20022 -0.241835,2.51004 0.366123,3.49209 0,0 0,0 0,0 1.072223,2.07466 4.420345,3.00758 6.4356475,1.76512 2e-7,0 5e-7,0 7e-7,0 2.102182,-1.09198 3.041878,-4.46542 1.7854687,-6.51159 1.288503,2.02764 0.4088013,5.44428 -1.7298807,6.60787 -10e-8,0 -3e-7,0 -4e-7,0 -2.0585068,1.30245 -5.5004568,0.41597 -6.6837978,-1.75023 0,0 -10e-7,0 -10e-7,0 -0.651454,-1.03398 -0.761759,-2.4054 -0.441107,-3.67287 -0.338341,1.26287 -0.248945,2.64211 0.39346,3.70038 0,0 0,0 10e-7,0 1.170801,2.21196 4.645221,3.17871 6.8145414,1.86665 3e-7,0 6e-7,0 8e-7,0 2.2394734,-1.19056 3.2130108,-4.6903 1.8869932,-6.89048 1.3581125,2.18165 0.4445715,5.72459 -1.8314032,6.98676 -1e-7,0 -3e-7,0 -4e-7,0 -2.2125258,1.37206 -5.7807768,0.45174 -7.0627018,-1.85175 0,0 0,0 0,0 -0.685903,-1.1102 -0.805321,-2.55106 -0.468447,-3.88117 -0.354565,1.32551 -0.256055,2.77419 0.420798,3.90868 0,0 0,0 0,0 1.269384,2.34925 4.870107,3.34985 7.1934504,1.96818 3e-7,0 6e-7,-1e-5 9e-7,-1e-5 2.3767695,-1.28914 3.3841497,-4.91517 1.9885212,-7.26938 1.4277234,2.33568 0.4803397,6.00492 -1.9329313,7.36567 -10e-8,0 -3e-7,0 -4e-7,0 -2.3665488,1.44167 -6.0611028,0.48751 -7.4416098,-1.95328 0,0 0,0 0,0 -0.720352,-1.18642 -0.848883,-2.69671 -0.495786,-4.08947 -0.370787,1.38816 -0.263165,2.90627 0.448137,4.11698 0,0 0,0 0,0 1.367967,2.48655 5.094992,3.52099 7.5723583,2.0697 3e-7,0 6e-7,0 1e-6,0 2.5140658,-1.38772 3.5552887,-5.14006 2.0900493,-7.64829 1.4973331,2.4897 0.5161045,6.28524 -2.0344614,7.74457 -10e-8,0 -3e-7,0 -4e-7,0 -2.5205698,1.51129 -6.3414238,0.52328 -7.8205088,-2.0548 0,0 0,0 0,0 -0.754799,-1.26264 -0.892442,-2.84237 -0.523122,-4.29777 -0.38701,1.4508 -0.270275,3.03835 0.475474,4.32528 1e-6,0 1e-6,0 1e-6,0 1.466545,2.62384 5.319869,3.69212 7.9512523,2.17122 3e-7,0 6e-7,0 10e-7,0 2.6513571,-1.4863 3.7264215,-5.36494 2.1915738,-8.02719 1.5669437,2.64372 0.551878,6.56557 -2.1359819,8.12348 -1e-7,0 -3e-7,0 -5e-7,0 -2.6745907,1.5809 -6.6217487,0.55905 -8.1994207,-2.15633 0,0 -10e-7,0 -10e-7,0 -0.789249,-1.33886 -0.936006,-2.98802 -0.550464,-4.50607 -0.403233,1.51345 -0.277384,3.17043 0.502815,4.53358 10e-7,0 10e-7,0 10e-7,0 1.565132,2.76114 5.544761,3.86326 8.3301692,2.27275 4e-7,0 7e-7,0 1.1e-6,0 2.7886547,-1.58488 3.8975596,-5.58982 2.2930999,-8.4061 1.6365535,2.79775 0.5876428,6.84589 -2.237512,8.50239 -1e-7,0 -3e-7,0 -5e-7,0 -2.8286117,1.6505 -6.9020697,0.59481 -8.5783197,-2.25786 -1e-6,0 -1e-6,0 -1e-6,0 -0.823697,-1.41509 -0.979565,-3.13368 -0.577799,-4.71437 -0.419457,1.57609 -0.284497,3.3025 0.53015,4.74188 0,0 1e-6,0 1e-6,0 1.66371,2.89843 5.769639,4.0344 8.7090682,2.37428 3e-7,0 7e-7,0 1.1e-6,0 2.9259497,-1.68347 4.0686995,-5.81471 2.39463,-8.78501 1.7061632,2.95177 0.6234077,7.12622 -2.3390421,8.88129 -1e-7,0 -3e-7,0 -5e-7,0 -2.9826337,1.72011 -7.1823907,0.63058 -8.9572187,-2.35939 -1e-6,0 -1e-6,0 -1e-6,0 -0.858144,-1.4913 -1.023124,-3.27932 -0.605135,-4.92266 -0.43568,1.63874 -0.291608,3.43458 0.557486,4.95017 0,0 0,0 10e-7,0 1.762288,3.03573 5.994516,4.20554 9.0879671,2.47581 4e-7,0 8e-7,0 1.2e-6,0 3.0632446,-1.78204 4.2398393,-6.03959 2.4961601,-9.16391 1.7757752,3.10579 0.6591792,7.40654 -2.4405681,9.2602 -2e-7,0 -4e-7,0 -6e-7,0 -3.1366577,1.78973 -7.4627207,0.66635 -9.3361367,-2.46091 0,0 0,0 0,0 -0.892594,-1.56753 -1.066688,-3.42499 -0.632476,-5.13097 -0.451903,1.70138 -0.298717,3.56666 0.584827,5.15848 0,0 0,0 1e-6,0 1.860874,3.17302 6.219409,4.37667 9.4668841,2.57734 4e-7,0 8e-7,-10e-6 1.2e-6,-10e-6 3.2005422,-1.88063 4.4109774,-6.26448 2.5976862,-9.54282 1.8453849,3.25982 0.694944,7.68687 -2.5420982,9.63911 -2e-7,0 -4e-7,0 -7e-7,0 -3.2906796,1.85933 -7.7430416,0.70211 -9.7150356,-2.56245 0,0 0,0 0,0 -0.927041,-1.64375 -1.110247,-3.57063 -0.659812,-5.33926 -0.468125,1.76402 -0.305827,3.69873 0.612164,5.36677 10e-7,0 10e-7,0 10e-7,0 1.959454,3.31032 6.444286,4.54781 9.845779,2.67886 5e-7,0 9e-7,0 1.3e-6,0 3.3378336,-1.97921 4.5821102,-6.48935 2.6992107,-9.92171 1.9149956,3.41383 0.7307175,7.96718 -2.6436187,10.018 -2e-7,0 -5e-7,0 -7e-7,0 -3.4446996,1.92895 -8.0233666,0.73789 -10.0939476,-2.66396 0,0 0,0 -1e-6,-1e-5 -0.961491,-1.71997 -1.153812,-3.71629 -0.687154,-5.54756 -0.484348,1.82667 -0.312935,3.83081 0.639507,5.57507 0,0 1e-6,0 1e-6,1e-5 2.05804,3.44761 6.669178,4.71894 10.224691,2.78038 4e-7,0 9e-7,0 1.3e-6,0 3.4751275,-2.07779 4.7532413,-6.71424 2.8007312,-10.30062 1.9846039,3.56785 0.7664843,8.2475 -2.7451432,10.3969 -2e-7,0 -5e-7,0 -7e-7,0 -3.5987176,1.99856 -8.3036826,0.77366 -10.4728416,-2.76549 -1e-6,0 -1e-6,0 -1e-6,0 -0.995939,-1.79619 -1.197372,-3.86194 -0.714492,-5.75586 -0.500571,1.88931 -0.320048,3.96289 0.666841,5.78337 1e-6,0 1e-6,0 1e-6,0 2.156618,3.58491 6.894056,4.89009 10.6035949,2.88192 5e-7,0 1e-6,0 1.4e-6,0 3.6124261,-2.17637 4.9243882,-6.93913 2.902267,-10.67953 2.0378646,3.73131 0.7553325,8.51526 -2.8749985,10.72676 -3e-7,0 -6e-7,0 -9e-7,0 -3.7307329,2.0376 -8.5141979,0.7552 -10.7253259,-2.87461 -2.037335,-3.73015 -0.755061,-8.51314 2.874226,-10.72389 1e-6,0 1e-6,0 2e-6,0 1.192864,-0.68698 2.548542,-1.050101 3.925021,-1.051356 z"
       sodipodi:end="10.995574"
       id="path14339-7-9"
       sodipodi:open="true"
       inkscape:path-effect="#path-effect14384-0-6"
       sodipodi:rx="6.1871843"
       sodipodi:ry="6.1871843"
       sodipodi:start="5.7595865"
       style="color:#000000;fill:#ffffff;fill-opacity:1;stroke:none;stroke-width:3.38507128000000002;marker:none;visibility:visible;display:inline;overflow:visible;enable-background:accumulate"
       transform="matrix(-0.62666932,0.62666932,-0.62666932,-0.62666932,345.21756,371.81115)"
       sodipodi:type="arc" />
    <path
       sodipodi:cx="-11.667262"
       sodipodi:cy="107.74711"
       d="m -11.667264,99.897414 10e-7,3.328526 c -0.78263,-0.001 -1.583491,0.21322 -2.260581,0.60573 -10e-7,0 -10e-7,0 -10e-7,0 -1.981399,1.02795 -2.856825,4.29509 -1.65486,6.17602 1.027954,1.9814 4.29509,2.85683 6.1760243,1.65486 3e-7,0 6e-7,0 9e-7,0 1.9813991,-1.02795 2.8568259,-4.29509 1.6548608,-6.17602 1.2184186,1.87143 0.3737493,5.16072 -1.6263624,6.22538 -10e-8,0 -2e-7,0 -3e-7,0 -1.9030833,1.23272 -5.2183223,0.3811 -6.3032443,-1.64722 0,0 0,0 -10e-7,0 -0.617121,-0.95745 -0.718579,-2.25935 -0.414374,-3.46423 -0.322119,1.20022 -0.241835,2.51004 0.366123,3.49209 0,0 0,0 0,0 1.072223,2.07466 4.420345,3.00758 6.4356475,1.76512 2e-7,0 5e-7,0 7e-7,0 2.102182,-1.09198 3.041878,-4.46542 1.7854687,-6.51159 1.288503,2.02764 0.4088013,5.44428 -1.7298807,6.60787 -10e-8,0 -3e-7,0 -4e-7,0 -2.0585068,1.30245 -5.5004568,0.41597 -6.6837978,-1.75023 0,0 -10e-7,0 -10e-7,0 -0.651454,-1.03398 -0.761759,-2.4054 -0.441107,-3.67287 -0.338341,1.26287 -0.248945,2.64211 0.39346,3.70038 0,0 0,0 10e-7,0 1.170801,2.21196 4.645221,3.17871 6.8145414,1.86665 3e-7,0 6e-7,0 8e-7,0 2.2394734,-1.19056 3.2130108,-4.6903 1.8869932,-6.89048 1.3581125,2.18165 0.4445715,5.72459 -1.8314032,6.98676 -1e-7,0 -3e-7,0 -4e-7,0 -2.2125258,1.37206 -5.7807768,0.45174 -7.0627018,-1.85175 0,0 0,0 0,0 -0.685903,-1.1102 -0.805321,-2.55106 -0.468447,-3.88117 -0.354565,1.32551 -0.256055,2.77419 0.420798,3.90868 0,0 0,0 0,0 1.269384,2.34925 4.870107,3.34985 7.1934504,1.96818 3e-7,0 6e-7,-1e-5 9e-7,-1e-5 2.3767695,-1.28914 3.3841497,-4.91517 1.9885212,-7.26938 1.4277234,2.33568 0.4803397,6.00492 -1.9329313,7.36567 -10e-8,0 -3e-7,0 -4e-7,0 -2.3665488,1.44167 -6.0611028,0.48751 -7.4416098,-1.95328 0,0 0,0 0,0 -0.720352,-1.18642 -0.848883,-2.69671 -0.495786,-4.08947 -0.370787,1.38816 -0.263165,2.90627 0.448137,4.11698 0,0 0,0 0,0 1.367967,2.48655 5.094992,3.52099 7.5723583,2.0697 3e-7,0 6e-7,0 1e-6,0 2.5140658,-1.38772 3.5552887,-5.14006 2.0900493,-7.64829 1.4973331,2.4897 0.5161045,6.28524 -2.0344614,7.74457 -10e-8,0 -3e-7,0 -4e-7,0 -2.5205698,1.51129 -6.3414238,0.52328 -7.8205088,-2.0548 0,0 0,0 0,0 -0.754799,-1.26264 -0.892442,-2.84237 -0.523122,-4.29777 -0.38701,1.4508 -0.270275,3.03835 0.475474,4.32528 1e-6,0 1e-6,0 1e-6,0 1.466545,2.62384 5.319869,3.69212 7.9512523,2.17122 3e-7,0 6e-7,0 10e-7,0 2.6513571,-1.4863 3.7264215,-5.36494 2.1915738,-8.02719 1.5669437,2.64372 0.551878,6.56557 -2.1359819,8.12348 -1e-7,0 -3e-7,0 -5e-7,0 -2.6745907,1.5809 -6.6217487,0.55905 -8.1994207,-2.15633 0,0 -10e-7,0 -10e-7,0 -0.789249,-1.33886 -0.936006,-2.98802 -0.550464,-4.50607 -0.403233,1.51345 -0.277384,3.17043 0.502815,4.53358 10e-7,0 10e-7,0 10e-7,0 1.565132,2.76114 5.544761,3.86326 8.3301692,2.27275 4e-7,0 7e-7,0 1.1e-6,0 2.7886547,-1.58488 3.8975596,-5.58982 2.2930999,-8.4061 1.6365535,2.79775 0.5876428,6.84589 -2.237512,8.50239 -1e-7,0 -3e-7,0 -5e-7,0 -2.8286117,1.6505 -6.9020697,0.59481 -8.5783197,-2.25786 -1e-6,0 -1e-6,0 -1e-6,0 -0.823697,-1.41509 -0.979565,-3.13368 -0.577799,-4.71437 -0.419457,1.57609 -0.284497,3.3025 0.53015,4.74188 0,0 1e-6,0 1e-6,0 1.66371,2.89843 5.769639,4.0344 8.7090682,2.37428 3e-7,0 7e-7,0 1.1e-6,0 2.9259497,-1.68347 4.0686995,-5.81471 2.39463,-8.78501 1.7061632,2.95177 0.6234077,7.12622 -2.3390421,8.88129 -1e-7,0 -3e-7,0 -5e-7,0 -2.9826337,1.72011 -7.1823907,0.63058 -8.9572187,-2.35939 -1e-6,0 -1e-6,0 -1e-6,0 -0.858144,-1.4913 -1.023124,-3.27932 -0.605135,-4.92266 -0.43568,1.63874 -0.291608,3.43458 0.557486,4.95017 0,0 0,0 10e-7,0 1.762288,3.03573 5.994516,4.20554 9.0879671,2.47581 4e-7,0 8e-7,0 1.2e-6,0 3.0632446,-1.78204 4.2398393,-6.03959 2.4961601,-9.16391 1.7757752,3.10579 0.6591792,7.40654 -2.4405681,9.2602 -2e-7,0 -4e-7,0 -6e-7,0 -3.1366577,1.78973 -7.4627207,0.66635 -9.3361367,-2.46091 0,0 0,0 0,0 -0.892594,-1.56753 -1.066688,-3.42499 -0.632476,-5.13097 -0.451903,1.70138 -0.298717,3.56666 0.584827,5.15848 0,0 0,0 1e-6,0 1.860874,3.17302 6.219409,4.37667 9.4668841,2.57734 4e-7,0 8e-7,-10e-6 1.2e-6,-10e-6 3.2005422,-1.88063 4.4109774,-6.26448 2.5976862,-9.54282 1.8453849,3.25982 0.694944,7.68687 -2.5420982,9.63911 -2e-7,0 -4e-7,0 -7e-7,0 -3.2906796,1.85933 -7.7430416,0.70211 -9.7150356,-2.56245 0,0 0,0 0,0 -0.927041,-1.64375 -1.110247,-3.57063 -0.659812,-5.33926 -0.468125,1.76402 -0.305827,3.69873 0.612164,5.36677 10e-7,0 10e-7,0 10e-7,0 1.959454,3.31032 6.444286,4.54781 9.845779,2.67886 5e-7,0 9e-7,0 1.3e-6,0 3.3378336,-1.97921 4.5821102,-6.48935 2.6992107,-9.92171 1.9149956,3.41383 0.7307175,7.96718 -2.6436187,10.018 -2e-7,0 -5e-7,0 -7e-7,0 -3.4446996,1.92895 -8.0233666,0.73789 -10.0939476,-2.66396 0,0 0,0 -1e-6,-1e-5 -0.961491,-1.71997 -1.153812,-3.71629 -0.687154,-5.54756 -0.484348,1.82667 -0.312935,3.83081 0.639507,5.57507 0,0 1e-6,0 1e-6,1e-5 2.05804,3.44761 6.669178,4.71894 10.224691,2.78038 4e-7,0 9e-7,0 1.3e-6,0 3.4751275,-2.07779 4.7532413,-6.71424 2.8007312,-10.30062 1.9846039,3.56785 0.7664843,8.2475 -2.7451432,10.3969 -2e-7,0 -5e-7,0 -7e-7,0 -3.5987176,1.99856 -8.3036826,0.77366 -10.4728416,-2.76549 -1e-6,0 -1e-6,0 -1e-6,0 -0.995939,-1.79619 -1.197372,-3.86194 -0.714492,-5.75586 -0.500571,1.88931 -0.320048,3.96289 0.666841,5.78337 1e-6,0 1e-6,0 1e-6,0 2.156618,3.58491 6.894056,4.89009 10.6035949,2.88192 5e-7,0 1e-6,0 1.4e-6,0 3.6124261,-2.17637 4.9243882,-6.93913 2.902267,-10.67953 2.0378646,3.73131 0.7553325,8.51526 -2.8749985,10.72676 -3e-7,0 -6e-7,0 -9e-7,0 -3.7307329,2.0376 -8.5141979,0.7552 -10.7253259,-2.87461 -2.037335,-3.73015 -0.755061,-8.51314 2.874226,-10.72389 1e-6,0 1e-6,0 2e-6,0 1.192864,-0.68698 2.548542,-1.050101 3.925021,-1.051356 z"
       sodipodi:end="10.995574"
       id="path14339-2-7-8"
       sodipodi:open="true"
       inkscape:path-effect="#path-effect14384-5-2-4"
       sodipodi:rx="6.1871843"
       sodipodi:ry="6.1871843"
       sodipodi:start="5.7595865"
       style="color:#000000;fill:#ffffff;fill-opacity:1;stroke:none;stroke-width:3.38507128000000002;marker:none;visibility:visible;display:inline;overflow:visible;enable-background:accumulate"
       transform="matrix(0.62666932,-0.62666932,0.62666932,0.62666932,224.78244,246.18885)"
       sodipodi:type="arc" />
  </g>
  <g
     inkscape:groupmode="layer"
     id="layer10"
     inkscape:label="devices"
     style="display:inline"
     transform="translate(-201,-285)" />
  <g
     inkscape:groupmode="layer"
     id="layer11"
     inkscape:label="apps"
     transform="translate(-201,-285)" />
  <g
     inkscape:groupmode="layer"
     id="layer13"
     inkscape:label="places"
     style="display:inline"
     transform="translate(-201,-285)" />
  <g
     inkscape:groupmode="layer"
     id="layer14"
     inkscape:label="mimetypes"
     transform="translate(-201,-285)" />
  <g
     inkscape:groupmode="layer"
     id="layer15"
     inkscape:label="emblems"
     style="display:inline"
     transform="translate(-201,-285)" />
  <g
     inkscape:groupmode="layer"
     id="g71291"
     inkscape:label="emotes"
     style="display:inline"
     transform="translate(-201,-285)" />
  <g
     inkscape:groupmode="layer"
     id="g4953"
     inkscape:label="categories"
     style="display:inline"
     transform="translate(-201,-285)" />
  <g
     inkscape:groupmode="layer"
     id="layer12"
     inkscape:label="actions"
     style="display:inline"
     transform="translate(-201,-285)" />
</svg>
