<svg viewBox="0 0 512 32">
  <defs>
    <g id="g">
      <rect fill="none" y="0" x="0" height="16" width="16"/>
      <path fill="#FFFFFF" opacity="0.75" d="M 8 1 A 7 7 0 0 0 1 8 A 7 7 0 0 0 8 15 A 7 7 0 0 0 15 8 L 12 8 A 4 4 0 0 1 8 12 A 4 4 0 0 1 4 8 A 4 4 0 0 1 8 4 L 8 1 z"/>
    </g>
  </defs>
  <use xlink:href="#g"/>
  <use xlink:href="#g" transform="rotate(180,8,16)"/>
  <use xlink:href="#g" transform="rotate(5.625,16,170.84374)"/>
  <use xlink:href="#g" transform="rotate(-174.375,16.393015,15.606985)"/>
  <use xlink:href="#g" transform="rotate(11.25,24,170.45073)"/>
  <use xlink:href="#g" transform="rotate(-168.75,24.787931,14.424138)"/>
  <use xlink:href="#g" transform="rotate(16.875,32,169.79486)"/>
  <use xlink:href="#g" transform="rotate(-163.125,33.186688,12.439936)"/>
  <use xlink:href="#g" transform="rotate(22.5,40,168.87486)"/>
  <use xlink:href="#g" transform="rotate(-157.5,41.591299,9.6348042)"/>
  <use xlink:href="#g" transform="rotate(28.125,48,167.68895)"/>
  <use xlink:href="#g" transform="rotate(-151.875,50.003896,5.9805216)"/>
  <use xlink:href="#g" transform="rotate(33.75,56,166.23479)"/>
  <use xlink:href="#g" transform="rotate(-146.25,58.426773,1.4393592)"/>
  <use xlink:href="#g" transform="rotate(39.375,64,164.50952)"/>
  <use xlink:href="#g" transform="rotate(-140.625,66.862446,-4.0371204)"/>
  <use xlink:href="#g" transform="rotate(45,72,162.50967)"/>
  <use xlink:href="#g" transform="rotate(-135,75.313708,-10.509668)"/>
  <use xlink:href="#g" transform="rotate(50.625,80,160.23121)"/>
  <use xlink:href="#g" transform="rotate(-129.375,83.783718,-18.053464)"/>
  <use xlink:href="#g" transform="rotate(56.25,88,157.66947)"/>
  <use xlink:href="#g" transform="rotate(-123.75,92.276089,-26.760891)"/>
  <use xlink:href="#g" transform="rotate(61.875,96,154.81913)"/>
  <use xlink:href="#g" transform="rotate(-118.125,100.79502,-36.74517)"/>
  <use xlink:href="#g" transform="rotate(67.5,104,151.67415)"/>
  <use xlink:href="#g" transform="rotate(-112.5,109.34543,-48.145149)"/>
  <use xlink:href="#g" transform="rotate(73.125,112,148.22777)"/>
  <use xlink:href="#g" transform="rotate(-106.875,117.9332,-61.131657)"/>
  <use xlink:href="#g" transform="rotate(78.75,120,144.47239)"/>
  <use xlink:href="#g" transform="rotate(-101.25,126.56543,-75.916025)"/>
  <use xlink:href="#g" transform="rotate(84.375,128,140.3996)"/>
  <use xlink:href="#g" transform="rotate(-95.625,135.25078,-92.76166)"/>
  <use xlink:href="#g" transform="rotate(90,136,136)"/>
  <use xlink:href="#g" transform="rotate(-90,144,-112)"/>
  <use xlink:href="#g" transform="rotate(95.625,144,131.26321)"/>
  <use xlink:href="#g" transform="rotate(-84.375,152.82664,-134.05288)"/>
  <use xlink:href="#g" transform="rotate(101.25,152,126.17775)"/>
  <use xlink:href="#g" transform="rotate(-78.75,161.74803,-159.46451)"/>
  <use xlink:href="#g" transform="rotate(106.875,160,120.73088)"/>
  <use xlink:href="#g" transform="rotate(-73.125,170.78675,-188.94827)"/>
  <use xlink:href="#g" transform="rotate(112.5,168,114.90858)"/>
  <use xlink:href="#g" transform="rotate(-67.5,179.97285,-223.45692)"/>
  <use xlink:href="#g" transform="rotate(118.125,176,108.69532)"/>
  <use xlink:href="#g" transform="rotate(-61.875,189.34719,-264.29107)"/>
  <use xlink:href="#g" transform="rotate(123.75,184,102.07396)"/>
  <use xlink:href="#g" transform="rotate(-56.25,198.96695,-313.27284)"/>
  <use xlink:href="#g" transform="rotate(129.375,192,95.025519)"/>
  <use xlink:href="#g" transform="rotate(-50.625,208.91458,-373.03531)"/>
  <use xlink:href="#g" transform="rotate(135,200,87.529004)"/>
  <use xlink:href="#g" transform="rotate(-45,219.31371,-447.529)"/>
  <use xlink:href="#g" transform="rotate(140.625,208,79.561144)"/>
  <use xlink:href="#g" transform="rotate(-39.375,230.3585,-542.96255)"/>
  <use xlink:href="#g" transform="rotate(146.25,216,71.09611)"/>
  <use xlink:href="#g" transform="rotate(-33.75,242.37247,-669.68411)"/>
  <use xlink:href="#g" transform="rotate(151.875,224,62.105183)"/>
  <use xlink:href="#g" transform="rotate(-28.125,255.93779,-846.32034)"/>
  <use xlink:href="#g" transform="rotate(157.5,232,52.55637)"/>
  <use xlink:href="#g" transform="rotate(-22.5,272.21872,-1110.124)"/>
  <use xlink:href="#g" transform="rotate(163.125,240,42.413949)"/>
  <use xlink:href="#g" transform="rotate(-16.875,293.93162,-1548.017)"/>
  <use xlink:href="#g" transform="rotate(168.75,248,31.637937)"/>
  <use xlink:href="#g" transform="rotate(-11.25,329.22536,-2420.7609)"/>
  <use xlink:href="#g" transform="rotate(174.375,256,20.183459)"/>
  <use xlink:href="#g" transform="rotate(-5.625,418.84374,-5032.156)"/>
</svg>
